<svg width="119" height="31" viewBox="0 0 119 31" fill="none" xmlns="http://www.w3.org/2000/svg">
<path d="M23.3572 30.0036C23.1442 30.0036 23.0023 29.8586 22.9313 29.7136L13.7045 2.74022L4.47759 29.7136C4.40662 29.9311 4.12272 30.0761 3.90979 30.0036C3.69686 29.9311 3.55491 29.6411 3.62588 29.4235L13.1366 1.72508C13.2076 1.43504 13.4915 1.29004 13.7754 1.29004C14.0593 1.29004 14.2723 1.43504 14.4142 1.72508L23.854 29.4235C23.925 29.6411 23.783 29.9311 23.5701 30.0036C23.4991 30.0036 23.4281 30.0036 23.3572 30.0036Z" fill="black" stroke="#010101" stroke-width="0.1823" stroke-miterlimit="10"/>
<path d="M22.2215 26.4507H5.18726C4.90336 26.4507 4.69043 26.2331 4.69043 25.9431C4.69043 25.6531 4.90336 25.4355 5.18726 25.4355H22.2215C22.5054 25.4355 22.7183 25.6531 22.7183 25.9431C22.6473 26.2331 22.4344 26.4507 22.2215 26.4507Z" fill="black" stroke="#010101" stroke-width="0.1823" stroke-miterlimit="10"/>
<path d="M36.6299 30.0036C30.3131 30.0036 25.1318 23.4778 25.1318 15.5018C25.1318 7.52581 30.2421 1 36.6299 1C40.9594 1 44.8631 4.04539 46.8504 8.83099C46.9214 9.04852 46.8504 9.33855 46.5665 9.48357C46.3536 9.55607 46.0697 9.48357 45.9277 9.19353C44.0824 4.69797 40.5336 1.94263 36.5589 1.94263C30.7389 1.94263 25.9835 8.03338 25.9835 15.5018C25.9835 22.9702 30.7389 29.061 36.5589 29.061C40.4626 29.061 44.0824 26.3057 45.9277 21.8101C45.9987 21.5926 46.2826 21.4476 46.5665 21.5201C46.7795 21.5926 46.9214 21.8826 46.8504 22.1726C44.8631 27.0307 40.9594 30.0036 36.6299 30.0036Z" fill="black" stroke="#010101" stroke-width="0.1823" stroke-miterlimit="10"/>
<path d="M41.8817 19.4895C41.7397 19.4895 41.5268 19.417 41.3848 19.3445C41.1009 19.1995 40.959 18.9095 40.959 18.5469V12.4562C40.959 12.0936 41.1009 11.8036 41.3848 11.6586C41.6687 11.5136 42.0236 11.5136 42.3075 11.6586L47.8436 14.704C48.1275 14.849 48.3405 15.2115 48.3405 15.5015C48.3405 15.7916 48.1275 16.1541 47.8436 16.2991L42.3075 19.3445C42.1656 19.4895 42.0236 19.4895 41.8817 19.4895ZM41.8817 12.5287V18.6194L47.3468 15.5741L41.8817 12.5287Z" fill="black" stroke="#010101" stroke-width="0.1823" stroke-miterlimit="10"/>
<path d="M65.3034 2.01514H54.2312C53.9473 2.01514 53.7344 1.7976 53.7344 1.50757C53.7344 1.21753 53.9473 1 54.2312 1H65.3034C65.5873 1 65.8003 1.21753 65.8003 1.50757C65.8003 1.7976 65.5873 2.01514 65.3034 2.01514Z" fill="black" stroke="#010101" stroke-width="0.1823" stroke-miterlimit="10"/>
<path d="M65.3034 30.0034H54.2312C53.9473 30.0034 53.7344 29.7859 53.7344 29.4959C53.7344 29.2058 53.9473 28.9883 54.2312 28.9883H65.3034C65.5873 28.9883 65.8003 29.2058 65.8003 29.4959C65.8003 29.7859 65.5873 30.0034 65.3034 30.0034Z" fill="black" stroke="#010101" stroke-width="0.1823" stroke-miterlimit="10"/>
<path d="M59.7671 18.62C58.1347 18.62 56.7861 17.2424 56.7861 15.5747C56.7861 13.907 58.1347 12.5293 59.7671 12.5293C61.3996 12.5293 62.7481 13.907 62.7481 15.5747C62.8191 17.2424 61.4705 18.62 59.7671 18.62ZM59.7671 13.3994C58.6315 13.3994 57.7088 14.342 57.7088 15.5021C57.7088 16.6623 58.6315 17.6049 59.7671 17.6049C60.9027 17.6049 61.8254 16.6623 61.8254 15.5021C61.8254 14.342 60.9027 13.3994 59.7671 13.3994Z" fill="black" stroke="#010101" stroke-width="0.1823" stroke-miterlimit="10"/>
<path d="M61.8256 30.0037C61.6127 30.0037 61.3998 29.8587 61.3998 29.5686L57.2122 1.65265C57.1412 1.36262 57.3541 1.14508 57.567 1.14508C57.8509 1.07257 58.0639 1.2901 58.0639 1.50763L62.2515 29.4236C62.3224 29.7136 62.1805 30.0037 61.8256 30.0037C61.8966 30.0037 61.8966 30.0037 61.8256 30.0037Z" fill="black"/>
<path d="M61.8256 30.0037C61.6127 30.0037 61.3998 29.8587 61.3998 29.5686L57.2122 1.65265C57.1412 1.36262 57.3541 1.14508 57.567 1.14508C57.8509 1.07257 58.0639 1.2901 58.0639 1.50763L62.2515 29.4236C62.3224 29.7136 62.1805 30.0037 61.8256 30.0037ZM61.8256 30.0037C61.8966 30.0037 61.8966 30.0037 61.8256 30.0037Z" stroke="#010101" stroke-width="0.1823" stroke-miterlimit="10"/>
<path d="M57.7092 30.004C57.6382 30.004 57.6382 30.004 57.7092 30.004C57.3543 29.9315 57.2124 29.714 57.2834 29.4239L61.4709 1.50798C61.5419 1.21794 61.7548 1.07292 61.9678 1.14543C62.2517 1.21794 62.3936 1.43548 62.3227 1.653L58.1351 29.569C58.1351 29.859 57.9222 30.004 57.7092 30.004Z" fill="black" stroke="#010101" stroke-width="0.1823" stroke-miterlimit="10"/>
<path d="M82.054 30.0765L71.2656 22.6806V10.354L80.6344 1.2904C80.8474 1.14539 81.1313 1.14539 81.2732 1.2904C81.4152 1.50793 81.4152 1.79796 81.2732 1.94298L72.1883 10.7891V22.173L81.912 28.8438L91.3518 19.6352C91.5647 19.4902 91.8486 19.4902 91.9906 19.6352C92.1325 19.8527 92.1325 20.1427 91.9906 20.2878L82.054 30.0765Z" fill="black" stroke="#010101" stroke-width="0.1823" stroke-miterlimit="10"/>
<path d="M71.8344 22.9704C71.6924 22.9704 71.6215 22.8979 71.4795 22.8254C71.3376 22.6079 71.3376 22.3178 71.4795 22.1728L88.4427 5.71326C88.6557 5.56824 88.9396 5.56824 89.0815 5.71326C89.2235 5.93078 89.2235 6.22084 89.0815 6.36585L72.1183 22.8254C72.1183 22.8979 71.9763 22.9704 71.8344 22.9704Z" fill="black" stroke="#010101" stroke-width="0.1823" stroke-miterlimit="10"/>
<path d="M103.985 9.62789C102.991 9.62789 102.14 8.75778 102.14 7.74266C102.14 6.72753 102.991 5.85742 103.985 5.85742C104.979 5.85742 105.83 6.72753 105.83 7.74266C105.83 8.75778 104.979 9.62789 103.985 9.62789ZM103.985 6.80003C103.488 6.80003 103.062 7.2351 103.062 7.74266C103.062 8.25022 103.488 8.68527 103.985 8.68527C104.482 8.68527 104.908 8.25022 104.908 7.74266C104.908 7.2351 104.482 6.80003 103.985 6.80003Z" fill="black" stroke="#010101" stroke-width="0.1823" stroke-miterlimit="10"/>
<path d="M105.547 30.0034C105.334 30.0034 105.05 30.0034 104.766 29.9309C103.773 29.7133 102.779 29.2783 101.927 28.6257L96.3203 24.2752C96.1074 24.1301 96.1074 23.8401 96.2493 23.6226C96.3913 23.405 96.6752 23.405 96.8881 23.5501L102.495 27.9006C103.205 28.4807 104.057 28.8432 104.908 28.9882C105.121 29.0607 105.334 29.0608 105.547 29.0608C108.528 29.0608 110.941 26.7405 110.941 23.9126C110.941 23.5501 110.87 23.1875 110.728 22.7525C110.374 21.6648 109.664 20.6497 108.599 19.8521L99.2303 12.6737C97.6688 11.5136 96.7462 9.77335 96.7462 7.96062C96.7462 7.8156 96.7462 7.7431 96.7462 7.59808C96.8171 3.97263 99.7981 1.07227 103.631 1.07227H103.702C104.979 1.07227 106.257 1.50733 107.251 2.30493L111.58 5.64035L111.012 6.36544L106.683 3.03002C105.831 2.37744 104.695 1.94238 103.631 1.94238H103.56C100.295 1.94238 97.6688 4.40768 97.5979 7.52556C97.5979 7.59807 97.5979 7.74311 97.5979 7.81562C97.5979 9.33831 98.3786 10.7885 99.7271 11.8036L109.096 18.982C110.303 19.9246 111.154 21.0848 111.509 22.3899C111.651 22.8975 111.722 23.405 111.722 23.8401C111.864 27.3205 109.025 30.0034 105.547 30.0034Z" fill="black" stroke="#010101" stroke-width="0.1823" stroke-miterlimit="10"/>
<path d="M105.405 23.768C105.334 23.768 105.192 23.768 105.121 23.6955L100.082 19.8525C99.8691 19.7075 99.8691 19.4175 100.011 19.1999C100.153 18.9824 100.437 18.9824 100.65 19.1274L105.689 22.9704C105.902 23.1154 105.902 23.4055 105.76 23.623C105.618 23.6955 105.547 23.768 105.405 23.768Z" fill="black" stroke="#010101" stroke-width="0.1823" stroke-miterlimit="10"/>
<path d="M3.0583 15.7197H1.14195C1.07098 15.7197 1 15.6472 1 15.5747C1 15.5022 1.07098 15.4297 1.14195 15.4297H3.0583C3.12927 15.4297 3.20025 15.5022 3.20025 15.5747C3.20025 15.6472 3.12927 15.7197 3.0583 15.7197Z" fill="black" stroke="#010101" stroke-width="0.1823" stroke-miterlimit="10"/>
<path d="M112.857 15.7197H109.166C109.095 15.7197 109.024 15.6472 109.024 15.5747C109.024 15.5022 109.095 15.4297 109.166 15.4297H112.857C112.928 15.4297 112.999 15.5022 112.999 15.5747C113.07 15.6472 112.999 15.7197 112.857 15.7197ZM105.546 15.7197H101.856C101.785 15.7197 101.714 15.6472 101.714 15.5747C101.714 15.5022 101.785 15.4297 101.856 15.4297H105.546C105.617 15.4297 105.688 15.5022 105.688 15.5747C105.688 15.6472 105.617 15.7197 105.546 15.7197ZM98.2359 15.7197H94.5452C94.4742 15.7197 94.4032 15.6472 94.4032 15.5747C94.4032 15.5022 94.4742 15.4297 94.5452 15.4297H98.2359C98.3069 15.4297 98.3779 15.5022 98.3779 15.5747C98.3779 15.6472 98.3069 15.7197 98.2359 15.7197ZM90.9254 15.7197H87.2347C87.1637 15.7197 87.0927 15.6472 87.0927 15.5747C87.0927 15.5022 87.1637 15.4297 87.2347 15.4297H90.9254C90.9964 15.4297 91.0674 15.5022 91.0674 15.5747C91.0674 15.6472 90.9964 15.7197 90.9254 15.7197ZM83.5439 15.7197H79.8532C79.7822 15.7197 79.7112 15.6472 79.7112 15.5747C79.7112 15.5022 79.7822 15.4297 79.8532 15.4297H83.5439C83.6149 15.4297 83.6859 15.5022 83.6859 15.5747C83.7569 15.6472 83.6859 15.7197 83.5439 15.7197ZM76.2334 15.7197H72.6137C72.5427 15.7197 72.4717 15.6472 72.4717 15.5747C72.4717 15.5022 72.5427 15.4297 72.6137 15.4297H76.3044C76.3754 15.4297 76.4464 15.5022 76.4464 15.5747C76.4464 15.6472 76.3754 15.7197 76.2334 15.7197ZM68.9229 15.7197H65.2322C65.1612 15.7197 65.0902 15.6472 65.0902 15.5747C65.0902 15.5022 65.1612 15.4297 65.2322 15.4297H68.9229C68.9939 15.4297 69.0649 15.5022 69.0649 15.5747C69.1358 15.6472 68.9939 15.7197 68.9229 15.7197ZM61.6124 15.7197H57.9217C57.8507 15.7197 57.7797 15.6472 57.7797 15.5747C57.7797 15.5022 57.8507 15.4297 57.9217 15.4297H61.6124C61.6834 15.4297 61.7544 15.5022 61.7544 15.5747C61.7544 15.6472 61.6834 15.7197 61.6124 15.7197ZM54.3019 15.7197H50.6112C50.5402 15.7197 50.4692 15.6472 50.4692 15.5747C50.4692 15.5022 50.5402 15.4297 50.6112 15.4297H54.3019C54.3729 15.4297 54.4438 15.5022 54.4438 15.5747C54.4438 15.6472 54.3729 15.7197 54.3019 15.7197ZM46.9914 15.7197H43.3006C43.2297 15.7197 43.1587 15.6472 43.1587 15.5747C43.1587 15.5022 43.2297 15.4297 43.3006 15.4297H46.9914C47.0624 15.4297 47.1333 15.5022 47.1333 15.5747C47.1333 15.6472 47.0624 15.7197 46.9914 15.7197ZM39.6099 15.7197H35.9192C35.8482 15.7197 35.7772 15.6472 35.7772 15.5747C35.7772 15.5022 35.8482 15.4297 35.9192 15.4297H39.6099C39.6809 15.4297 39.7519 15.5022 39.7519 15.5747C39.8228 15.6472 39.7519 15.7197 39.6099 15.7197ZM32.2994 15.7197H28.6086C28.5377 15.7197 28.4667 15.6472 28.4667 15.5747C28.4667 15.5022 28.5377 15.4297 28.6086 15.4297H32.2994C32.3704 15.4297 32.4413 15.5022 32.4413 15.5747C32.5123 15.6472 32.4413 15.7197 32.2994 15.7197ZM24.9889 15.7197H21.2981C21.2272 15.7197 21.1562 15.6472 21.1562 15.5747C21.1562 15.5022 21.2272 15.4297 21.2981 15.4297H24.9889C25.0599 15.4297 25.1308 15.5022 25.1308 15.5747C25.1308 15.6472 25.0599 15.7197 24.9889 15.7197ZM17.6784 15.7197H13.9876C13.9166 15.7197 13.8457 15.6472 13.8457 15.5747C13.8457 15.5022 13.9166 15.4297 13.9876 15.4297H17.6784C17.7493 15.4297 17.8203 15.5022 17.8203 15.5747C17.8203 15.6472 17.7493 15.7197 17.6784 15.7197ZM10.3679 15.7197H6.67711C6.60613 15.7197 6.53516 15.6472 6.53516 15.5747C6.53516 15.5022 6.60613 15.4297 6.67711 15.4297H10.3679C10.4388 15.4297 10.5098 15.5022 10.5098 15.5747C10.5098 15.6472 10.4388 15.7197 10.3679 15.7197Z" fill="black" stroke="#010101" stroke-width="0.1823" stroke-miterlimit="10"/>
<path d="M118.394 15.7197H116.548C116.477 15.7197 116.406 15.6472 116.406 15.5747C116.406 15.5022 116.477 15.4297 116.548 15.4297H118.394C118.465 15.4297 118.536 15.5022 118.536 15.5747C118.536 15.6472 118.465 15.7197 118.394 15.7197Z" fill="black" stroke="#010101" stroke-width="0.1823" stroke-miterlimit="10"/>
</svg>
