<svg width="30" height="30" viewBox="0 0 30 30" fill="none" xmlns="http://www.w3.org/2000/svg">
<path fill-rule="evenodd" clip-rule="evenodd" d="M15 30C23.2843 30 30 23.2843 30 15C30 6.71573 23.2843 0 15 0C6.71573 0 0 6.71573 0 15C0 23.2843 6.71573 30 15 30ZM15 24.5C14.1716 24.5 13.5 23.8284 13.5 23V17H7.5C6.67157 17 6 16.3284 6 15.5C6 14.6716 6.67157 14 7.5 14H13.5V8C13.5 7.17157 14.1716 6.5 15 6.5C15.8284 6.5 16.5 7.17157 16.5 8V14H22.5C23.3284 14 24 14.6716 24 15.5C24 16.3284 23.3284 17 22.5 17H16.5V23C16.5 23.8284 15.8284 24.5 15 24.5Z" fill="black"/>
</svg>
