<svg width="30" height="30" viewBox="0 0 30 30" fill="none" xmlns="http://www.w3.org/2000/svg">
<path fill-rule="evenodd" clip-rule="evenodd" d="M15 30C23.2843 30 30 23.2843 30 15C30 6.71573 23.2843 0 15 0C6.71573 0 0 6.71573 0 15C0 23.2843 6.71573 30 15 30ZM8.63596 21.8643C8.05017 21.2785 8.05017 20.3287 8.63596 19.7429L12.8783 15.5006L8.63573 11.258C8.04995 10.6723 8.04995 9.72251 8.63573 9.13673C9.22152 8.55094 10.1713 8.55094 10.7571 9.13673L14.9996 13.3793L19.2426 9.13634C19.8283 8.55056 20.7781 8.55056 21.3639 9.13634C21.9497 9.72213 21.9497 10.6719 21.3639 11.2577L17.1209 15.5006L21.3637 19.7433C21.9494 20.3291 21.9494 21.2789 21.3637 21.8646C20.7779 22.4504 19.8281 22.4504 19.2423 21.8646L14.9996 17.6219L10.7573 21.8643C10.1715 22.4501 9.22175 22.4501 8.63596 21.8643Z" fill="#010101"/>
</svg>
