<svg width="34" height="34" viewBox="0 0 34 34" fill="none" xmlns="http://www.w3.org/2000/svg">
<path fill-rule="evenodd" clip-rule="evenodd" d="M17 34C26.3888 34 34 26.3888 34 17C34 7.61116 26.3888 0 17 0C7.61116 0 0 7.61116 0 17C0 26.3888 7.61116 34 17 34ZM16.9998 27.7667C16.0609 27.7667 15.2998 27.0056 15.2998 26.0667V19.2668H8.4998C7.56092 19.2668 6.7998 18.5057 6.7998 17.5668C6.7998 16.6279 7.56092 15.8668 8.49981 15.8668H15.2998V9.0667C15.2998 8.12781 16.0609 7.3667 16.9998 7.3667C17.9387 7.3667 18.6998 8.12782 18.6998 9.0667V15.8668H25.4998C26.4387 15.8668 27.1998 16.6279 27.1998 17.5668C27.1998 18.5057 26.4387 19.2668 25.4998 19.2668H18.6998V26.0667C18.6998 27.0056 17.9387 27.7667 16.9998 27.7667Z" fill="black"/>
</svg>
