<svg width="40" height="40" viewBox="0 0 40 40" fill="none" xmlns="http://www.w3.org/2000/svg">
<path fill-rule="evenodd" clip-rule="evenodd" d="M40 20C40 31.0457 31.0457 40 20 40C8.9543 40 0 31.0457 0 20C0 8.9543 8.9543 0 20 0C31.0457 0 40 8.9543 40 20ZM25.6923 28.9999H14.3846C13.9231 28.7565 13.7846 28.3247 13.7461 27.8301C13.6461 26.6053 13.5308 25.3805 13.4154 24.1635L12.7231 16.7441C12.6692 16.171 13.0308 15.7627 13.5846 15.7156C13.6769 15.7078 13.7615 15.7078 13.8538 15.7078H26.2308C26.3231 15.7078 26.4077 15.7078 26.5 15.7156C27.0538 15.7627 27.4231 16.1631 27.3923 16.7363C27.3807 16.9857 27.3558 17.2306 27.3311 17.4744L27.3311 17.4745C27.3231 17.553 27.3152 17.6314 27.3077 17.7098C27.1463 19.4199 26.983 21.128 26.8196 22.8362L26.8192 22.8412C26.6557 24.5506 26.4923 26.26 26.3308 27.9714C26.2923 28.4346 26.1231 28.7958 25.6923 28.9999ZM20.6632 21.4336L20.6632 21.4325C20.6649 20.8227 20.6667 20.2141 20.6615 19.602C20.6538 19.1702 20.3846 18.9032 20 18.8954C19.5923 18.8954 19.3385 19.1387 19.3308 19.5784C19.3231 19.9082 19.3231 20.2301 19.3231 20.5598V25.1135C19.3231 25.4747 19.4538 25.7259 19.8077 25.8123C20.2769 25.9301 20.6538 25.6317 20.6615 25.1292C20.6666 24.5177 20.665 23.9027 20.6632 23.2842V23.2842L20.6632 23.2827C20.6624 22.9726 20.6615 22.6617 20.6615 22.3499C20.6615 22.0438 20.6624 21.7386 20.6632 21.4336ZM15.8692 19.8768H15.8846C15.9109 20.406 15.9354 20.9353 15.9598 21.4636L15.9598 21.4639C15.9854 22.017 16.0109 22.5692 16.0385 23.1193C16.0769 23.8102 16.1231 24.5011 16.1692 25.192V25.192V25.1921C16.2077 25.7181 16.6692 25.9929 17.1308 25.773C17.4308 25.6317 17.5154 25.3805 17.5 25.0664C17.4489 24.0393 17.391 23.0192 17.3327 21.9927L17.3231 21.8239C17.2846 21.0702 17.2385 20.3086 17.1923 19.5549C17.1615 19.1387 16.8692 18.8797 16.4769 18.9032C16.0923 18.9268 15.8692 19.178 15.8538 19.602C15.8692 19.6962 15.8692 19.7825 15.8692 19.8768ZM24.2077 20.285H24.2308C24.2308 20.199 24.2316 20.112 24.2325 20.0248V20.0246C24.2342 19.8493 24.2359 19.6729 24.2308 19.4999C24.2231 19.1859 24.0461 18.9896 23.7538 18.9189C23.4692 18.8482 23.2154 18.9346 23.0385 19.178C22.9157 19.3424 22.9077 19.5459 22.9001 19.7417L22.9 19.7433L22.8931 19.877C22.8031 21.6221 22.7135 23.3602 22.6385 25.1057C22.6154 25.5689 22.8461 25.8202 23.2538 25.8359C23.6692 25.8516 23.9538 25.5925 23.9769 25.1449C24.0538 23.5276 24.1308 21.9102 24.2077 20.285ZM27.3382 14.1062C27.5997 14.1062 27.8228 14.0355 27.9997 13.8471C27.9997 13.1954 27.9997 12.5359 27.992 11.8921C27.7997 11.4603 27.4535 11.319 26.9997 11.319C26.4261 11.3223 25.8511 11.3214 25.2759 11.3204C24.5089 11.3191 23.7415 11.3178 22.9766 11.3268C22.6458 11.3347 22.4382 11.264 22.4305 10.8714C22.4151 10.4632 22.1458 10.2119 21.8382 10.0078H18.2228C17.8689 10.2119 17.6228 10.5024 17.6074 10.9342C17.592 11.2483 17.4382 11.319 17.1612 11.319C16.4651 11.315 15.7689 11.315 15.0728 11.315C14.3766 11.315 13.6805 11.315 12.9843 11.3111C12.5382 11.3033 12.1843 11.4446 11.992 11.8842V13.8471C12.1766 14.0433 12.392 14.1062 12.6535 14.1062H27.3382Z" fill="#9E9E9E"/>
</svg>
