<svg width="40" height="40" viewBox="0 0 40 40" fill="none" xmlns="http://www.w3.org/2000/svg">
<path fill-rule="evenodd" clip-rule="evenodd" d="M20 40C31.0457 40 40 31.0457 40 20C40 8.9543 31.0457 0 20 0C8.9543 0 0 8.9543 0 20C0 31.0457 8.9543 40 20 40ZM20.4753 8.52212C20.3256 8.06146 19.6739 8.06146 19.5242 8.52212L17.2066 15.6552C17.1396 15.8612 16.9476 16.0007 16.731 16.0007H9.23082C8.74646 16.0007 8.54507 16.6205 8.93693 16.9052L15.0047 21.3137C15.18 21.4411 15.2533 21.6667 15.1864 21.8728L12.8687 29.0059C12.719 29.4665 13.2462 29.8496 13.6381 29.5649L19.7059 25.1564C19.8811 25.0291 20.1184 25.0291 20.2937 25.1564L26.3615 29.5649C26.7533 29.8496 27.2806 29.4665 27.1309 29.0059L24.8132 21.8728C24.7462 21.6667 24.8196 21.4411 24.9948 21.3137L31.0626 16.9052C31.4545 16.6205 31.2531 16.0007 30.7687 16.0007H23.2685C23.0519 16.0007 22.8599 15.8612 22.793 15.6552L20.4753 8.52212Z" fill="#9E9E9E"/>
</svg>
