<svg width="452" height="250" viewBox="0 0 452 250" fill="none" xmlns="http://www.w3.org/2000/svg">
<path d="M145.75 243.509C134.833 234.529 122.066 229.246 108.33 226.076C105.425 225.372 104.016 224.579 103.84 221.146C103.488 213.133 100.406 206.442 92.6582 202.744C91.1614 202.04 89.6646 200.983 89.4885 203.977C89.0483 210.404 89.4885 216.567 94.4191 221.498C94.0669 221.762 93.8028 222.114 93.4506 222.378C86.4069 220.529 86.4069 220.529 86.671 213.574C86.9352 206.442 84.9981 200.367 79.011 195.876C76.9859 194.379 75.9293 194.115 75.225 197.021C73.7282 203.184 73.8162 208.995 77.5142 214.982C69.678 212.341 69.3258 211.637 70.7346 204.769C71.9672 198.342 71.439 192.354 66.8605 187.072C64.7474 184.694 63.6028 184.254 62.1941 187.6C59.9049 193.059 59.1124 198.606 62.018 205.297C60.257 204.065 59.7288 203.624 59.1124 203.272C55.3264 200.807 53.4775 198.43 56.2949 193.587C59.7288 187.6 59.4646 180.996 55.4145 174.921C54.0057 172.808 53.2133 172.632 51.8046 174.833C48.5468 179.676 46.5218 184.782 47.5783 190.946C41.5912 187.512 41.0629 185.399 44.4086 180.38C48.1066 174.657 49.6034 168.758 46.874 162.154C45.9054 159.777 45.025 159.161 42.9999 161.274C38.7737 165.676 35.9562 170.695 36.3964 177.21C35.4279 176.33 34.8996 175.537 34.2833 174.745C31.5538 171.135 30.6734 168.318 34.9877 164.708C40.1824 160.393 42.2075 154.318 40.4466 147.275C39.8302 144.809 39.0378 144.897 37.2769 146.13C31.906 150.004 27.8559 154.582 28.2081 161.978C26.9754 159.953 26.3591 157.84 25.3906 155.991C23.8938 152.733 24.334 150.708 27.7678 148.683C33.4028 145.337 36.9247 140.319 36.8366 133.187C36.7486 129.929 35.8681 129.401 33.0506 130.898C27.6798 133.715 23.5416 137.501 22.397 143.929C21.5165 141.463 21.3404 139.174 20.7241 137.061C19.6675 133.715 20.8122 132.307 23.9818 131.074C29.969 128.785 34.4594 124.735 35.692 118.043C36.3964 114.169 35.7801 113.641 31.906 114.873C26.3591 116.634 21.8687 119.804 19.8436 125.791C19.3154 123.062 19.4915 120.596 19.3154 118.219C19.1393 114.785 20.2839 113.2 23.9818 112.496C31.5538 110.999 36.8366 106.509 38.1573 97.9684C31.0256 97.9684 24.9503 99.9054 20.6361 106.069C20.8122 103.339 21.3404 101.138 21.6046 98.9369C21.9568 95.5031 23.1894 94.0943 27.0635 94.0063C33.4909 93.8302 38.9498 91.3649 42.1194 85.2016C43.3521 82.8244 42.8238 82.208 40.2705 82.032C34.5474 81.2395 29.1766 82.208 25.0384 87.2267C25.6547 84.2331 26.7113 81.6798 27.5037 79.1264C28.3842 76.397 29.5288 75.1643 32.8745 75.8687C37.541 76.8372 42.2955 76.2209 46.2576 73.2273C48.1947 71.8186 51.1882 70.0576 50.3078 67.6804C49.6914 65.8314 46.1696 66.2716 43.9684 65.8314C39.8302 65.127 36.4845 67.5043 32.0821 69.0011C33.667 66.2716 34.8996 64.5107 35.7801 62.4856C37.2769 59.1398 39.0378 58.1713 42.8238 59.5801C48.811 61.7812 54.6221 61.0769 59.6407 56.5865C61.2256 55.1777 61.5777 54.3853 59.2885 53.3288C54.2699 51.0395 49.2512 50.3352 44.1445 52.9766C43.7923 52.7124 43.5282 52.4483 43.176 52.0961C43.3521 51.6559 43.5282 51.3037 43.7043 50.8634C45.5533 48.5742 48.2827 46.9894 49.0751 43.9078C46.1696 44.1719 45.6413 47.8699 42.8238 48.3101C43.7923 43.0273 41.9433 38.625 38.8617 34.4868C37.1008 32.1976 36.3964 32.9019 35.3398 34.927C32.0821 41.0903 33.4909 46.7253 36.7486 52.3602C37.3649 53.5048 39.0378 54.3853 37.8932 56.1462C35.9562 59.0518 34.0191 61.9573 32.0821 64.9509C31.7299 59.5801 29.5288 55.618 26.0069 52.2722C25.1264 51.3917 24.246 49.8069 22.9253 50.1591C21.6046 50.5113 21.6046 52.2722 21.2524 53.4168C19.4915 59.9323 22.2209 65.039 26.271 69.7935C27.1515 70.85 28.7363 71.5544 27.9439 73.4034C26.4471 76.8372 24.9503 80.271 23.1014 84.7614C22.9253 77.7177 19.4915 73.7556 14.825 70.5859C12.0955 68.7369 11.2151 69.4413 10.8629 72.4349C10.0705 79.4786 13.6804 84.4092 18.699 88.6355C19.8436 89.604 21.6926 90.0442 21.1643 92.2454C20.2839 95.5911 19.4915 98.9369 18.699 102.283C16.762 96.0314 12.0955 93.1258 6.63665 90.8366C4.25939 89.8681 3.9072 90.7486 3.99525 92.8617C4.25939 98.8489 6.63665 104.132 11.9194 106.597C17.6425 109.326 18.2588 113.2 17.1142 118.395C16.9381 119.276 17.5544 120.42 16.3218 121.301C13.6804 115.93 8.92586 113.817 3.46697 112.496C0.385338 111.704 0.385338 112.936 0.825571 115.314C2.41041 122.798 7.60516 126.495 14.3848 128.873C15.6174 129.313 17.5544 129.049 17.5544 131.162C17.5544 134.068 18.8751 136.797 18.2588 140.231C14.1206 135.74 9.27805 134.068 3.64306 133.891C0.737524 133.803 0.473384 134.772 1.52994 137.237C4.0833 143.577 9.10195 146.658 15.4413 147.979C21.4285 149.3 23.1014 151.589 22.5731 158.368C17.9947 154.582 12.7999 154.582 7.42907 155.023C4.52353 155.287 4.43548 156.343 5.84423 158.544C9.89437 165.148 16.1457 167.085 23.4536 167.173C24.9503 167.173 26.7993 166.293 27.8559 168.142C29.1766 170.607 30.4092 173.072 32.1702 176.682C26.095 173.512 20.9882 173.512 15.7935 175.097C11.6553 176.33 11.5673 176.77 14.7369 180.028C19.3154 184.694 24.9503 185.839 31.2897 184.958C38.2454 183.99 38.9498 184.518 42.1194 191.298C41.5912 192.002 40.7987 191.914 40.1824 191.738C35.3398 190.417 31.0256 192.178 26.7113 194.027C22.8372 195.7 23.8938 196.933 26.5352 198.87C33.1387 203.624 40.0063 202.832 46.962 200.191C48.3708 199.662 49.6914 198.342 51.2763 200.014C53.3894 202.216 55.6786 204.153 58.7603 206.97C49.6914 204.329 43.7043 208.115 37.8932 213.221C44.5847 218.328 51.9807 219.297 58.5842 214.982C64.3952 211.196 68.3573 212.781 72.6716 216.391C72.8477 216.567 72.9358 216.831 73.1118 217.095C67.2127 217.8 62.018 219.913 57.9678 224.579C54.9742 228.013 54.9742 228.101 59.2005 229.422C66.9486 231.799 73.376 229.158 78.9229 224.139C81.3882 221.938 83.3253 221.498 86.1427 223.171C87.7276 224.139 89.5766 224.667 92.218 225.724C84.1177 226.428 79.8914 231.095 76.2815 236.642C74.6967 239.195 75.4891 239.635 78.0424 239.988C87.1113 241.396 93.5387 237.17 98.8215 230.479C99.9661 229.07 100.67 227.573 103.312 228.189C118.016 231.359 131.487 236.906 142.757 247.031C144.782 248.88 146.103 250.025 148.304 247.384C150.329 245.006 146.895 244.478 145.75 243.509Z" fill="#FEFDFB"/>
<path d="M54.1814 45.4043C61.7534 49.1903 67.4765 48.7501 73.4637 43.5553C68.6211 39.6813 63.6024 37.3921 57.3511 39.241C57.087 38.8889 56.8228 38.6247 56.5587 38.2725C57.087 36.8638 55.5902 35.6311 56.5587 33.9582C59.024 29.3798 57.175 24.9775 55.15 20.6632C53.9173 18.1099 53.0368 18.7262 51.6281 20.4871C47.8421 25.3297 47.4899 30.7005 49.6911 36.1594C50.9237 39.065 50.9237 41.4422 49.1628 43.9075C51.0998 43.2031 52.5966 44.6119 54.1814 45.4043Z" fill="#FEFDFB"/>
<path d="M48.9878 44.0845L49.0762 43.9961C49.0762 43.9961 48.9878 43.9961 48.9878 44.0845C48.8994 44.0845 48.8994 44.0845 48.8994 44.0845C48.9878 44.0845 48.9878 44.0845 48.9878 44.0845Z" fill="#FEFDFB"/>
<path d="M338.837 43.9961C338.749 43.9961 338.749 43.9961 338.66 43.9077C338.749 43.9961 338.749 44.0845 338.837 43.9961C338.749 44.0845 338.837 44.0845 338.837 43.9961C338.837 44.0845 338.837 43.9961 338.837 43.9961Z" fill="#FEFDFB"/>
<path d="M63.9551 30.6129C66.4204 31.7575 68.0933 33.4304 70.0303 34.663C74.6968 37.6566 79.5393 38.8012 84.9982 36.6881C87.5516 35.7196 87.3755 34.8391 85.6146 33.1662C81.3883 29.1161 76.5457 27.1791 70.4705 28.2356C72.7597 26.8269 71.5271 24.5377 72.7597 22.9528C75.6653 19.0788 74.8729 14.6764 73.7283 10.3621C72.9358 7.45661 71.8793 7.6327 69.9423 9.39364C64.9236 14.0601 64.7475 19.9592 65.9802 26.0344C66.4204 28.2356 66.6845 29.7324 63.9551 30.6129Z" fill="#FEFDFB"/>
<path d="M89.4002 28.8518C93.6264 30.9649 97.6766 31.3171 101.991 29.5562C98.8212 22.6005 95.1232 20.4874 85.4381 20.2232C87.3751 18.2862 89.3122 17.7579 90.6329 15.2926C93.3623 10.274 94.1547 5.69555 92.6579 0.324707C85.8783 3.1422 83.0608 7.45648 83.2369 15.4687C83.325 18.7265 82.7087 20.8396 78.4824 21.72C84.2935 21.9842 85.7022 27.0028 89.4002 28.8518Z" fill="#FEFDFB"/>
<path d="M108.066 14.5882C109.739 13.0914 110.003 12.3871 107.45 11.5946C101.463 9.65762 96.9724 11.6827 93.0103 16.6133C98.8213 19.2547 103.664 18.5503 108.066 14.5882Z" fill="#FEFDFB"/>
<path d="M440.174 127.904C446.074 126.231 449.772 121.565 450.916 115.226C451.356 113.024 451.004 112.32 448.627 112.848C442.992 114.081 438.061 116.37 434.892 122.445C434.628 119.364 434.716 117.339 434.363 115.314C433.659 111.88 434.716 109.855 438.061 108.182C443.872 105.276 447.482 100.522 447.834 93.6542C448.011 91.1889 447.746 89.9562 444.753 91.2769C439.47 93.5662 435.068 96.5597 433.395 103.78C432.602 100.346 432.25 98.0565 431.458 95.9434C430.137 92.5096 430.842 90.3084 434.011 87.9312C439.206 84.0571 441.935 78.6863 440.791 71.8186C440.439 69.7055 439.734 69.0011 437.709 70.3218C432.69 73.5796 428.904 77.4536 428.728 85.1137C427.232 81.4157 426.439 78.7743 425.118 76.3971C423.534 73.5796 423.71 71.6425 425.999 69.1772C429.873 64.951 432.25 60.0204 430.665 53.9452C430.313 52.6245 430.401 50.6874 428.904 50.2472C427.584 49.807 426.791 51.4799 425.823 52.3603C422.213 55.7061 420.1 59.8443 420.1 65.039C418.251 62.8379 417.194 60.6367 415.521 58.7877C413.32 56.2344 413.584 54.2974 415.345 51.5679C418.691 46.1971 419.483 40.474 416.138 34.5749C415.169 32.814 414.377 32.5498 413.056 34.3108C410.503 37.7446 408.214 41.2665 408.566 45.8449C408.654 46.9014 409.182 48.3982 407.069 48.0461C407.069 47.7819 406.893 47.6058 406.629 47.4297C405.572 45.9329 404.604 44.172 402.49 43.9079C402.755 46.021 404.427 47.0775 405.924 48.3982L406.188 48.6624C406.981 49.807 407.685 50.8635 408.478 52.0081C408.125 52.2723 407.861 52.5364 407.509 52.8006C401.434 49.7189 395.799 50.9516 390.34 54.4735C395.535 60.0204 399.849 61.4291 406.541 60.1084C413.849 58.6997 413.848 58.6997 417.458 65.1271C417.987 66.0076 418.339 66.9761 418.779 67.8565C418.515 68.1207 418.163 68.2968 417.899 68.5609C413.32 65.1271 408.214 65.039 402.843 66.3597C400.465 66.9761 400.377 67.7685 401.786 69.5294C406.1 75.0764 411.911 76.4851 418.603 75.6927C419.924 75.5166 421.685 74.2839 422.565 75.9568C424.238 79.1265 425.735 82.4723 426.175 87.3148C421.949 81.944 417.106 81.1516 411.735 81.2396C407.773 81.2396 408.125 82.7364 409.71 85.3778C413.32 91.5411 419.307 93.0379 425.735 93.5662C427.144 93.6542 428.728 93.302 429.081 95.4151C429.609 98.4968 430.841 101.49 430.313 105.805C426.967 100.522 422.565 98.3207 417.37 97.6163C416.05 97.4402 414.377 96.8239 413.584 97.7043C412.616 98.849 413.848 100.434 414.289 101.666C416.754 108.094 422.125 110.735 428.376 112.144C430.137 112.584 431.898 112.672 431.898 115.138C431.898 118.571 431.898 121.917 431.898 125.351C429.521 118.836 424.502 115.754 418.339 113.905C416.05 113.201 415.081 113.817 415.433 116.37C416.226 122.005 419.307 125.879 423.886 128.961C426.263 130.546 430.313 130.106 430.842 133.275C431.37 136.005 430.049 138.998 429.521 141.816C429.433 142.256 429.697 142.96 428.464 143.136C427.496 136.621 423.269 132.747 417.635 130.105C415.521 129.049 414.553 129.225 414.465 131.954C414.025 139.791 418.251 144.809 424.238 148.859C425.295 149.652 427.408 149.828 426.879 151.765C425.999 155.111 425.118 158.457 422.389 162.331C423.446 153.878 419.131 149.476 413.937 145.602C412.088 144.281 411.383 144.545 410.855 146.834C408.83 154.847 412.352 160.658 417.723 165.94C418.603 166.821 420.54 167.349 419.836 168.846C418.515 171.752 417.282 174.833 414.025 177.475C415.874 169.991 412.352 165.148 408.037 160.57C406.541 158.985 405.66 158.985 404.692 161.186C401.962 167.525 402.931 173.424 406.453 179.059C410.151 184.959 410.062 184.959 405.22 190.241C404.956 190.594 404.516 190.77 404.251 191.034C403.987 190.77 403.811 190.594 403.547 190.329C405.22 184.254 402.843 179.236 399.585 174.305C398.176 172.192 397.384 172.28 395.975 174.393C391.397 181.349 392.189 188.304 395.887 195.084C397.296 197.725 397.032 199.31 394.654 200.807C393.422 201.599 392.365 202.568 391.132 203.448C390.78 203.184 390.516 203.008 390.164 202.744C392.365 197.021 391.044 191.562 388.579 186.279C387.611 184.078 386.642 184.254 385.145 185.839C379.686 191.474 379.07 198.166 380.831 205.385C382.152 210.668 379.334 214.102 373.523 214.19C378.014 208.819 377.397 202.832 376.076 196.669C375.46 193.675 374.228 194.027 372.29 195.524C365.423 200.719 364.014 207.851 364.895 215.863C365.071 217.272 366.391 219.121 364.014 220.001C361.461 220.97 358.907 222.378 355.209 222.466C361.637 217.36 362.165 210.932 361.813 204.153C361.725 201.511 360.756 201.335 358.555 202.392C351.6 205.826 347.902 211.549 347.549 219.121C347.373 223.787 345.436 225.284 341.122 226.252C327.651 229.422 315.06 234.881 304.407 243.95C303.438 244.742 301.061 245.623 303.35 247.56C304.759 248.704 305.639 250.289 307.928 248.176C318.846 237.787 332.229 232.24 346.669 228.806C349.398 228.101 351.247 228.454 353.272 231.007C358.379 237.875 365.071 241.749 374.139 240.164C376.429 239.812 376.957 239.195 375.724 237.17C372.114 231.359 367.8 226.693 359.7 225.812C361.549 225.02 362.693 224.756 363.662 224.139C367.536 221.762 370.706 222.026 374.316 225.372C379.51 230.215 386.026 231.711 393.07 229.422C395.711 228.542 396.767 227.925 394.39 225.196C390.076 220.441 384.881 217.8 378.63 217.184C378.982 216.127 380.215 216.039 380.919 215.423C384.353 212.165 387.523 211.725 391.925 214.542C399.057 219.033 406.541 218.768 413.848 213.31C407.949 208.203 402.05 204.417 392.981 207.058C395.007 205.209 396.503 204.153 397.56 202.832C400.201 199.398 402.931 199.222 406.893 200.807C413.496 203.536 420.012 203.008 425.911 198.43C428.376 196.493 428.024 195.612 425.471 194.291C419.836 191.386 414.113 190.153 406.981 193.411C408.654 191.386 409.622 190.594 410.151 189.625C412.616 185.135 415.874 183.726 421.068 185.047C426.879 186.455 432.338 184.694 436.741 180.38C440.086 177.034 439.998 176.594 435.596 175.273C430.401 173.689 425.295 173.953 419.836 176.594C422.125 170.871 423.622 166.469 431.018 167.085C438.325 167.613 443.96 163.387 447.13 155.991C440.615 154.318 434.628 154.494 428.904 158.457C428.904 151.237 430.137 149.564 436.3 148.155C442.111 146.834 446.954 144.193 449.595 138.47C451.444 134.508 451.18 133.98 446.866 134.156C441.583 134.332 437.005 136.269 432.955 140.759C433.043 138.998 433.043 138.206 433.131 137.325C433.483 132.835 434.628 129.489 440.174 127.904ZM428.376 159.601C428.464 159.513 428.552 159.425 428.64 159.337C428.552 159.249 428.464 159.161 428.376 159.073C428.288 159.249 428.2 159.337 428.112 159.513C428.2 159.337 428.288 159.249 428.376 159.073C428.464 159.161 428.552 159.249 428.64 159.337C428.552 159.425 428.464 159.513 428.376 159.601Z" fill="#FEFDFB"/>
<path d="M401.786 36.2479C404.164 30.7009 403.547 25.154 399.585 20.2234C398.352 18.6385 397.472 18.4624 396.503 20.3995C394.302 24.8018 392.717 29.1161 394.743 34.1347C396.239 37.7447 394.919 39.2414 391.485 38.8012C386.818 38.0968 382.944 40.1219 379.246 42.5872C377.309 43.9079 378.63 44.6123 379.775 45.3167C385.586 49.1027 391.397 48.3103 397.208 45.4047C398.881 44.6123 400.289 43.2916 402.315 43.9079C400.73 41.5307 400.554 39.1534 401.786 36.2479Z" fill="#FEFDFB"/>
<path d="M365.335 33.6945C364.014 35.0152 364.19 35.6315 365.863 36.4239C371.498 39.1534 383.12 36.4239 386.29 31.4053C386.466 31.1411 386.554 30.3487 386.378 30.2607C383.737 28.4997 385.762 26.2986 385.85 24.3616C386.026 20.7516 386.554 17.0537 384.705 13.6199C383.384 11.2426 381.712 7.72074 379.07 8.24902C376.957 8.68925 376.957 12.6514 376.781 15.2928C376.605 17.4939 376.605 19.7831 377.926 21.6321C379.246 23.5691 379.687 25.7703 379.863 28.3236C373.964 27.2671 369.385 29.7324 365.335 33.6945Z" fill="#FEFDFB"/>
<path d="M366.127 20.6637C359.171 19.343 354.417 21.8963 350.631 26.8269C348.87 29.2042 349.574 29.9085 352.128 30.4368C358.379 31.6695 362.869 28.7639 366.919 24.7138C368.152 23.4811 368.944 21.5441 371.41 21.6322C368.064 20.8397 368.064 18.5505 368.152 15.8211C368.328 7.45666 365.246 2.70214 358.731 0.500977C355.914 8.86541 359.876 14.8526 366.127 20.6637Z" fill="#FEFDFB"/>
<path d="M358.379 16.6134C352.92 10.186 348.605 9.21749 342.002 12.7394C346.933 18.4624 351.511 19.607 358.379 16.6134Z" fill="#FEFDFB"/>
</svg>
