<svg width="88" height="87" viewBox="0 0 88 87" fill="none" xmlns="http://www.w3.org/2000/svg">
<path d="M0.000304772 77.1742C0.000331271 76.3198 1.00245 75.8589 1.65111 76.415L11.9476 85.2408C12.6525 85.845 12.2252 87 11.2968 87H1.00003C0.447734 87 1.38875e-05 86.5523 3.10183e-05 86L0.000304772 77.1742Z" fill="white"/>
<path fill-rule="evenodd" clip-rule="evenodd" d="M1 3C1 1.34315 2.34315 0 4 0H85C86.6569 0 88 1.34315 88 3V84C88 85.6569 86.6569 87 85 87H28.3948C27.6472 87 26.9266 86.7209 26.374 86.2173L1.97919 63.984C1.35545 63.4156 1 62.6107 1 61.7668V3ZM15 18H24V27H15V18ZM24 39H15V48H24V39ZM15 60H24V69H15V60ZM74 21H28V25H74V21ZM28 42H74V46H28V42ZM74 63H28V67H74V63Z" fill="white"/>
</svg>
