<svg width="87" height="86" viewBox="0 0 87 86" fill="none" xmlns="http://www.w3.org/2000/svg">
<rect width="87" height="11" rx="1" fill="white"/>
<rect y="80" width="87" height="6" rx="1" fill="white"/>
<path fill-rule="evenodd" clip-rule="evenodd" d="M1 18C0.447693 18 0 18.4477 0 19V73C0 73.5523 0.447693 74 1 74H86C86.5523 74 87 73.5523 87 73V19C87 18.4477 86.5523 18 86 18H1ZM10 28C9.44769 28 9 28.4477 9 29V31C9 31.5523 9.44769 32 10 32H77C77.5523 32 78 31.5523 78 31V29C78 28.4477 77.5523 28 77 28H10ZM9 45C9 44.4477 9.44769 44 10 44H77C77.5523 44 78 44.4477 78 45V47C78 47.5523 77.5523 48 77 48H10C9.44769 48 9 47.5523 9 47V45ZM10 60C9.44769 60 9 60.4477 9 61V63C9 63.5523 9.44769 64 10 64H77C77.5523 64 78 63.5523 78 63V61C78 60.4477 77.5523 60 77 60H10Z" fill="white"/>
</svg>
