<svg width="336" height="133" viewBox="0 0 336 133" fill="none" xmlns="http://www.w3.org/2000/svg">
<path d="M64.6211 82.6354C64.0152 82.6354 63.6113 82.2272 63.4093 81.8191L37.153 5.89812L10.8966 81.8191C10.6946 82.4313 9.88675 82.8395 9.28084 82.6354C8.67492 82.4313 8.27098 81.615 8.47295 81.0027L35.5372 3.04083C35.7392 2.22447 36.547 1.81635 37.3549 1.81635C38.1628 1.81635 38.7687 2.22447 39.1727 3.04083L66.0349 81.0027C66.2369 81.615 65.833 82.4313 65.2271 82.6354C65.0251 82.6354 64.8231 82.6354 64.6211 82.6354Z" fill="#F7F8F8" stroke="white" stroke-width="0.1823" stroke-miterlimit="10"/>
<path d="M61.3895 72.6351H12.9162C12.1084 72.6351 11.5024 72.0228 11.5024 71.2065C11.5024 70.3901 12.1084 69.7778 12.9162 69.7778H61.3895C62.1974 69.7778 62.8033 70.3901 62.8033 71.2065C62.6013 72.0228 61.9954 72.6351 61.3895 72.6351Z" fill="#F7F8F8" stroke="white" stroke-width="0.1823" stroke-miterlimit="10"/>
<path d="M102.39 82.6355C84.4149 82.6355 69.6709 64.2675 69.6709 41.8177C69.6709 19.368 84.2129 1 102.39 1C114.711 1 125.819 9.57176 131.474 23.0416C131.676 23.6539 131.474 24.4702 130.666 24.8784C130.061 25.0825 129.253 24.8784 128.849 24.0621C123.597 11.4086 113.499 3.65319 102.188 3.65319C85.6267 3.65319 72.0946 20.7966 72.0946 41.8177C72.0946 62.8389 85.6267 79.9823 102.188 79.9823C113.297 79.9823 123.597 72.227 128.849 59.5735C129.051 58.9612 129.859 58.553 130.666 58.7571C131.272 58.9612 131.676 59.7776 131.474 60.5939C125.819 74.2679 114.711 82.6355 102.39 82.6355Z" fill="#F7F8F8" stroke="white" stroke-width="0.1823" stroke-miterlimit="10"/>
<path d="M117.337 53.0426C116.933 53.0426 116.327 52.8386 115.923 52.6345C115.115 52.2263 114.711 51.4099 114.711 50.3895V33.2461C114.711 32.2256 115.115 31.4093 115.923 31.0011C116.731 30.5929 117.741 30.5929 118.548 31.0011L134.302 39.5728C135.11 39.981 135.716 41.0014 135.716 41.8178C135.716 42.6341 135.11 43.6546 134.302 44.0627L118.548 52.6345C118.144 53.0427 117.741 53.0426 117.337 53.0426ZM117.337 33.4502V50.5936L132.888 42.0219L117.337 33.4502Z" fill="#F7F8F8" stroke="white" stroke-width="0.1823" stroke-miterlimit="10"/>
<path d="M183.988 3.85728H152.48C151.672 3.85728 151.066 3.24499 151.066 2.42864C151.066 1.61229 151.672 1 152.48 1H183.988C184.796 1 185.402 1.61229 185.402 2.42864C185.402 3.24499 184.796 3.85728 183.988 3.85728Z" fill="#F7F8F8" stroke="white" stroke-width="0.1823" stroke-miterlimit="10"/>
<path d="M183.986 82.6354H152.478C151.67 82.6354 151.064 82.0231 151.064 81.2068C151.064 80.3904 151.67 79.7781 152.478 79.7781H183.986C184.794 79.7781 185.4 80.3904 185.4 81.2068C185.4 82.0231 184.794 82.6354 183.986 82.6354Z" fill="#F7F8F8" stroke="white" stroke-width="0.1823" stroke-miterlimit="10"/>
<path d="M168.232 50.5935C163.587 50.5935 159.749 46.7158 159.749 42.0218C159.749 37.3277 163.587 33.4501 168.232 33.4501C172.877 33.4501 176.715 37.3277 176.715 42.0218C176.917 46.7158 173.079 50.5935 168.232 50.5935ZM168.232 35.8991C165 35.8991 162.375 38.5522 162.375 41.8177C162.375 45.0831 165 47.7363 168.232 47.7363C171.463 47.7363 174.089 45.0831 174.089 41.8177C174.089 38.5522 171.463 35.8991 168.232 35.8991Z" fill="#F7F8F8" stroke="white" stroke-width="0.1823" stroke-miterlimit="10"/>
<path d="M174.091 82.6355C173.485 82.6355 172.879 82.2273 172.879 81.411L160.962 2.83684C160.76 2.02049 161.366 1.4082 161.972 1.4082C162.78 1.20411 163.386 1.81637 163.386 2.42864L175.303 81.0028C175.505 81.8191 175.101 82.6355 174.091 82.6355C174.293 82.6355 174.293 82.6355 174.091 82.6355Z" fill="#F7F8F8"/>
<path d="M174.091 82.6355C173.485 82.6355 172.879 82.2273 172.879 81.411L160.962 2.83684C160.76 2.02049 161.366 1.4082 161.972 1.4082C162.78 1.20411 163.386 1.81637 163.386 2.42864L175.303 81.0028C175.505 81.8191 175.101 82.6355 174.091 82.6355ZM174.091 82.6355C174.293 82.6355 174.293 82.6355 174.091 82.6355Z" stroke="white" stroke-width="0.1823" stroke-miterlimit="10"/>
<path d="M162.375 82.6355C162.173 82.6355 162.173 82.6355 162.375 82.6355C161.365 82.4314 160.961 81.8191 161.163 81.0028L173.079 2.42865C173.281 1.6123 173.887 1.20412 174.493 1.40821C175.301 1.6123 175.705 2.22459 175.503 2.83686L163.586 81.411C163.586 82.2273 162.981 82.6355 162.375 82.6355Z" fill="#F7F8F8" stroke="white" stroke-width="0.1823" stroke-miterlimit="10"/>
<path d="M231.652 82.8395L200.952 62.0225V27.3274L227.612 1.81633C228.218 1.40815 229.026 1.40815 229.43 1.81633C229.834 2.42859 229.834 3.24493 229.43 3.65311L203.578 28.5519V60.5938L231.248 79.37L258.11 53.4507C258.716 53.0425 259.524 53.0425 259.928 53.4507C260.332 54.063 260.332 54.8793 259.928 55.2875L231.652 82.8395Z" fill="#F7F8F8" stroke="white" stroke-width="0.1823" stroke-miterlimit="10"/>
<path d="M202.571 62.8388C202.167 62.8388 201.965 62.6347 201.561 62.4306C201.157 61.8183 201.157 61.002 201.561 60.5938L249.832 14.2657C250.438 13.8575 251.246 13.8575 251.65 14.2657C252.054 14.8779 252.054 15.6943 251.65 16.1025L203.379 62.4306C203.379 62.6347 202.975 62.8388 202.571 62.8388Z" fill="#F7F8F8" stroke="white" stroke-width="0.1823" stroke-miterlimit="10"/>
<path d="M294.061 25.2865C291.233 25.2865 288.81 22.8374 288.81 19.9802C288.81 17.123 291.233 14.6739 294.061 14.6739C296.888 14.6739 299.312 17.123 299.312 19.9802C299.312 22.8374 296.888 25.2865 294.061 25.2865ZM294.061 17.327C292.647 17.327 291.435 18.5516 291.435 19.9802C291.435 21.4088 292.647 22.6333 294.061 22.6333C295.475 22.6333 296.686 21.4088 296.686 19.9802C296.686 18.5516 295.475 17.327 294.061 17.327Z" fill="#F7F8F8" stroke="white" stroke-width="0.1823" stroke-miterlimit="10"/>
<path d="M298.505 82.6354C297.899 82.6354 297.091 82.6354 296.283 82.4313C293.455 81.8191 290.628 80.5945 288.204 78.7577L272.248 66.5124C271.642 66.1042 271.642 65.2879 272.046 64.6756C272.45 64.0633 273.258 64.0633 273.864 64.4715L289.82 76.7168C291.839 78.3495 294.263 79.37 296.687 79.7782C297.293 79.9822 297.899 79.9823 298.505 79.9823C306.987 79.9823 313.854 73.4514 313.854 65.492C313.854 64.4715 313.652 63.4511 313.248 62.2265C312.239 59.1652 310.219 56.308 307.189 54.063L280.529 33.8582C276.086 30.5928 273.46 25.6947 273.46 20.5925C273.46 20.1843 273.46 19.9802 273.46 19.572C273.662 9.36759 282.145 1.20404 293.051 1.20404H293.253C296.889 1.20404 300.524 2.4286 303.352 4.67357L315.672 14.0617L314.056 16.1025L301.736 6.71446C299.312 4.87766 296.081 3.65313 293.051 3.65313H292.849C283.559 3.65313 276.086 10.5921 275.884 19.3679C275.884 19.572 275.884 19.9802 275.884 20.1843C275.884 24.4702 278.105 28.552 281.943 31.4092L308.603 51.614C312.037 54.2671 314.46 57.5325 315.47 61.2061C315.874 62.6347 316.076 64.0633 316.076 65.2879C316.48 75.0841 308.401 82.6354 298.505 82.6354Z" fill="#F7F8F8" stroke="white" stroke-width="0.1823" stroke-miterlimit="10"/>
<path d="M298.1 65.0839C297.898 65.0839 297.494 65.0839 297.292 64.8798L282.952 54.063C282.346 53.6548 282.346 52.8385 282.75 52.2262C283.154 51.614 283.962 51.614 284.568 52.0221L298.908 62.8389C299.514 63.2471 299.514 64.0634 299.11 64.6757C298.706 64.8798 298.504 65.0839 298.1 65.0839Z" fill="#F7F8F8" stroke="white" stroke-width="0.1823" stroke-miterlimit="10"/>
<path d="M6.85718 42.4299H1.40394C1.20197 42.4299 1 42.2258 1 42.0217C1 41.8176 1.20197 41.6136 1.40394 41.6136H6.85718C7.05915 41.6136 7.26112 41.8176 7.26112 42.0217C7.26112 42.2258 7.05915 42.4299 6.85718 42.4299Z" fill="#F7F8F8" stroke="white" stroke-width="0.1823" stroke-miterlimit="10"/>
<path d="M319.307 42.4299H308.804C308.602 42.4299 308.4 42.2258 308.4 42.0217C308.4 41.8176 308.602 41.6136 308.804 41.6136H319.307C319.509 41.6136 319.711 41.8176 319.711 42.0217C319.913 42.2258 319.711 42.4299 319.307 42.4299ZM298.504 42.4299H288.001C287.799 42.4299 287.597 42.2258 287.597 42.0217C287.597 41.8176 287.799 41.6136 288.001 41.6136H298.504C298.706 41.6136 298.908 41.8176 298.908 42.0217C298.908 42.2258 298.706 42.4299 298.504 42.4299ZM277.701 42.4299H267.198C266.996 42.4299 266.794 42.2258 266.794 42.0217C266.794 41.8176 266.996 41.6136 267.198 41.6136H277.701C277.903 41.6136 278.105 41.8176 278.105 42.0217C278.105 42.2258 277.903 42.4299 277.701 42.4299ZM256.898 42.4299H246.395C246.193 42.4299 245.991 42.2258 245.991 42.0217C245.991 41.8176 246.193 41.6136 246.395 41.6136H256.898C257.1 41.6136 257.302 41.8176 257.302 42.0217C257.302 42.2258 257.1 42.4299 256.898 42.4299ZM235.893 42.4299H225.39C225.188 42.4299 224.986 42.2258 224.986 42.0217C224.986 41.8176 225.188 41.6136 225.39 41.6136H235.893C236.094 41.6136 236.296 41.8176 236.296 42.0217C236.498 42.2258 236.296 42.4299 235.893 42.4299ZM215.089 42.4299H204.789C204.587 42.4299 204.385 42.2258 204.385 42.0217C204.385 41.8176 204.587 41.6136 204.789 41.6136H215.291C215.493 41.6136 215.695 41.8176 215.695 42.0217C215.695 42.2258 215.493 42.4299 215.089 42.4299ZM194.286 42.4299H183.784C183.582 42.4299 183.38 42.2258 183.38 42.0217C183.38 41.8176 183.582 41.6136 183.784 41.6136H194.286C194.488 41.6136 194.69 41.8176 194.69 42.0217C194.892 42.2258 194.488 42.4299 194.286 42.4299ZM173.483 42.4299H162.981C162.779 42.4299 162.577 42.2258 162.577 42.0217C162.577 41.8176 162.779 41.6136 162.981 41.6136H173.483C173.685 41.6136 173.887 41.8176 173.887 42.0217C173.887 42.2258 173.685 42.4299 173.483 42.4299ZM152.68 42.4299H142.178C141.976 42.4299 141.774 42.2258 141.774 42.0217C141.774 41.8176 141.976 41.6136 142.178 41.6136H152.68C152.882 41.6136 153.084 41.8176 153.084 42.0217C153.084 42.2258 152.882 42.4299 152.68 42.4299ZM131.877 42.4299H121.374C121.172 42.4299 120.97 42.2258 120.97 42.0217C120.97 41.8176 121.172 41.6136 121.374 41.6136H131.877C132.079 41.6136 132.281 41.8176 132.281 42.0217C132.281 42.2258 132.079 42.4299 131.877 42.4299ZM110.872 42.4299H100.369C100.167 42.4299 99.9654 42.2258 99.9654 42.0217C99.9654 41.8176 100.167 41.6136 100.369 41.6136H110.872C111.074 41.6136 111.276 41.8176 111.276 42.0217C111.478 42.2258 111.276 42.4299 110.872 42.4299ZM90.0687 42.4299H79.5662C79.3642 42.4299 79.1623 42.2258 79.1623 42.0217C79.1623 41.8176 79.3642 41.6136 79.5662 41.6136H90.0687C90.2707 41.6136 90.4727 41.8176 90.4727 42.0217C90.6747 42.2258 90.4727 42.4299 90.0687 42.4299ZM69.2656 42.4299H58.7631C58.5611 42.4299 58.3592 42.2258 58.3592 42.0217C58.3592 41.8176 58.5611 41.6136 58.7631 41.6136H69.2656C69.4676 41.6136 69.6696 41.8176 69.6696 42.0217C69.6696 42.2258 69.4676 42.4299 69.2656 42.4299ZM48.4625 42.4299H37.96C37.758 42.4299 37.556 42.2258 37.556 42.0217C37.556 41.8176 37.758 41.6136 37.96 41.6136H48.4625C48.6645 41.6136 48.8665 41.8176 48.8665 42.0217C48.8665 42.2258 48.6645 42.4299 48.4625 42.4299ZM27.6594 42.4299H17.1569C16.9549 42.4299 16.7529 42.2258 16.7529 42.0217C16.7529 41.8176 16.9549 41.6136 17.1569 41.6136H27.6594C27.8614 41.6136 28.0634 41.8176 28.0634 42.0217C28.0634 42.2258 27.8614 42.4299 27.6594 42.4299Z" fill="#F7F8F8" stroke="white" stroke-width="0.1823" stroke-miterlimit="10"/>
<path d="M335.06 42.4299H329.809C329.607 42.4299 329.405 42.2258 329.405 42.0217C329.405 41.8176 329.607 41.6136 329.809 41.6136H335.06C335.262 41.6136 335.464 41.8176 335.464 42.0217C335.464 42.2258 335.262 42.4299 335.06 42.4299Z" fill="#F7F8F8" stroke="white" stroke-width="0.1823" stroke-miterlimit="10"/>
<path d="M50.2807 122.025H46.8472V121.004H55.33V122.025H51.6945V132.025H50.2807V122.025Z" fill="#F7F8F8" stroke="white" stroke-width="0.1823" stroke-miterlimit="10"/>
<path d="M67.8516 121.004H69.2654L70.4772 127.127C70.6792 128.351 70.8811 129.576 71.2851 130.8C71.4871 129.576 71.891 128.351 72.093 127.127L73.7087 121.004H74.9206L76.5363 127.127C76.7383 128.351 77.1423 129.576 77.3442 130.8C77.5462 129.576 77.7482 128.351 77.9501 127.127L79.162 121.004H80.3738L77.9501 132.025H76.3344L74.5166 125.086C74.3147 124.27 74.1127 123.453 73.9107 122.637C73.7087 123.453 73.5068 124.27 73.3048 125.086L71.4871 132.025H69.8713L67.8516 121.004Z" fill="#F7F8F8" stroke="white" stroke-width="0.1823" stroke-miterlimit="10"/>
<path d="M94.916 121.004H96.3298V132.025H94.916V121.004Z" fill="#F7F8F8" stroke="white" stroke-width="0.1823" stroke-miterlimit="10"/>
<path d="M111.277 121.004H112.691L117.135 128.147L118.346 130.392C118.346 129.372 118.144 128.147 118.144 126.923V121.004H119.356V132.025H117.942L113.499 124.882L112.287 122.637C112.287 123.657 112.489 124.882 112.489 126.106V132.229H111.277V121.004V121.004Z" fill="#F7F8F8" stroke="white" stroke-width="0.1823" stroke-miterlimit="10"/>
<path d="M148.844 130.596L149.854 129.984C150.46 130.8 151.065 131.209 151.873 131.209C153.085 131.209 153.691 130.596 153.691 128.759V121.004H155.105V128.964C155.105 130.8 154.297 132.433 152.075 132.433C150.661 132.229 149.45 131.617 148.844 130.596Z" fill="#F7F8F8" stroke="white" stroke-width="0.1823" stroke-miterlimit="10"/>
<path d="M169.445 126.514C169.445 123.045 171.465 120.8 174.293 120.8C177.12 120.8 179.14 123.045 179.14 126.514C179.14 129.984 177.12 132.229 174.293 132.229C171.465 132.229 169.445 129.984 169.445 126.514ZM177.928 126.514C177.928 123.657 176.514 122.025 174.293 122.025C172.071 122.025 170.657 123.861 170.657 126.514C170.657 129.372 172.071 131.209 174.293 131.209C176.514 131.209 177.928 129.372 177.928 126.514Z" fill="#F7F8F8" stroke="white" stroke-width="0.1823" stroke-miterlimit="10"/>
<path d="M193.683 127.535V121.004H195.096V127.535C195.096 130.188 196.308 131.004 197.924 131.004C199.54 131.004 200.752 130.188 200.752 127.535V121.004H201.963V127.535C201.963 131.004 200.146 132.229 197.924 132.229C195.702 132.229 193.683 131.209 193.683 127.535Z" fill="#F7F8F8" stroke="white" stroke-width="0.1823" stroke-miterlimit="10"/>
<path d="M223.371 132.025L220.544 127.331H218.322V132.025H216.908V121.004H220.544C222.967 121.004 224.583 121.82 224.583 124.065C224.583 125.902 223.573 126.719 221.958 127.127L224.987 132.025H223.371ZM218.322 126.31H220.342C222.159 126.31 223.169 125.698 223.169 124.065C223.169 122.637 222.159 122.025 220.342 122.025H218.322V126.31Z" fill="#F7F8F8" stroke="white" stroke-width="0.1823" stroke-miterlimit="10"/>
<path d="M238.721 121.004H240.135L244.578 128.147L245.79 130.392C245.79 129.372 245.588 128.147 245.588 126.923V121.004H246.8V132.025H245.386L240.942 124.882L239.731 122.637C239.731 123.657 239.933 124.882 239.933 126.106V132.229H238.721V121.004Z" fill="#F7F8F8" stroke="white" stroke-width="0.1823" stroke-miterlimit="10"/>
<path d="M261.948 121.004H268.613V122.025H263.362V125.698H267.805V126.719H263.362V131.004H268.815V132.025H261.948V121.004V121.004Z" fill="#F7F8F8" stroke="white" stroke-width="0.1823" stroke-miterlimit="10"/>
<path d="M284.973 127.739L281.539 121.004H282.953L284.569 124.27C284.973 125.086 285.377 125.902 285.78 126.719C286.184 125.902 286.588 125.086 286.992 124.27L288.608 121.004H290.022L286.588 127.739V132.025H285.377V127.739H284.973Z" fill="#F7F8F8" stroke="white" stroke-width="0.1823" stroke-miterlimit="10"/>
</svg>
