<svg width="336" height="133" viewBox="0 0 336 133" fill="none" xmlns="http://www.w3.org/2000/svg">
<path d="M64.1568 82.1144C63.5509 82.1144 63.1469 81.7062 62.945 81.2981L36.6886 5.37712L10.4323 81.2981C10.2303 81.9103 9.4224 82.3185 8.81648 82.1144C8.21057 81.9103 7.80662 81.094 8.00859 80.4817L35.0728 2.51983C35.2748 1.70348 36.0827 1.29535 36.8906 1.29535C37.6985 1.29535 38.3044 1.70348 38.7083 2.51983L65.5706 80.4817C65.7726 81.094 65.3686 81.9103 64.7627 82.1144C64.5607 82.1144 64.3588 82.1144 64.1568 82.1144Z" fill="#F7F8F8" stroke="white" stroke-width="0.1823" stroke-miterlimit="10"/>
<path d="M60.9251 72.1141H12.4519C11.644 72.1141 11.0381 71.5018 11.0381 70.6855C11.0381 69.8691 11.644 69.2568 12.4519 69.2568H60.9251C61.733 69.2568 62.3389 69.8691 62.3389 70.6855C62.137 71.5018 61.5311 72.1141 60.9251 72.1141Z" fill="#F7F8F8" stroke="white" stroke-width="0.1823" stroke-miterlimit="10"/>
<path d="M101.926 82.1145C83.95 82.1145 69.2061 63.7465 69.2061 41.2967C69.2061 18.847 83.748 0.479004 101.926 0.479004C114.246 0.479004 125.354 9.05077 131.009 22.5206C131.211 23.1329 131.009 23.9492 130.202 24.3574C129.596 24.5615 128.788 24.3574 128.384 23.5411C123.133 10.8876 113.034 3.13219 101.724 3.13219C85.1618 3.13219 71.6297 20.2756 71.6297 41.2967C71.6297 62.3179 85.1618 79.4613 101.724 79.4613C112.832 79.4613 123.133 71.706 128.384 59.0525C128.586 58.4402 129.394 58.032 130.202 58.2361C130.807 58.4402 131.211 59.2566 131.009 60.0729C125.354 73.7469 114.246 82.1145 101.926 82.1145Z" fill="#F7F8F8" stroke="white" stroke-width="0.1823" stroke-miterlimit="10"/>
<path d="M116.871 52.5216C116.467 52.5216 115.861 52.3176 115.457 52.1135C114.65 51.7053 114.246 50.889 114.246 49.8685V32.7251C114.246 31.7046 114.65 30.8883 115.457 30.4801C116.265 30.0719 117.275 30.0719 118.083 30.4801L133.837 39.0518C134.645 39.46 135.251 40.4804 135.251 41.2968C135.251 42.1131 134.645 43.1336 133.837 43.5417L118.083 52.1135C117.679 52.5217 117.275 52.5216 116.871 52.5216ZM116.871 32.9292V50.0726L132.423 41.5009L116.871 32.9292Z" fill="#F7F8F8" stroke="white" stroke-width="0.1823" stroke-miterlimit="10"/>
<path d="M183.523 3.33629H152.015C151.207 3.33629 150.601 2.724 150.601 1.90765C150.601 1.09129 151.207 0.479004 152.015 0.479004H183.523C184.33 0.479004 184.936 1.09129 184.936 1.90765C184.936 2.724 184.33 3.33629 183.523 3.33629Z" fill="#F7F8F8" stroke="white" stroke-width="0.1823" stroke-miterlimit="10"/>
<path d="M183.521 82.1144H152.013C151.206 82.1144 150.6 81.5022 150.6 80.6858C150.6 79.8694 151.206 79.2571 152.013 79.2571H183.521C184.329 79.2571 184.935 79.8694 184.935 80.6858C184.935 81.5022 184.329 82.1144 183.521 82.1144Z" fill="#F7F8F8" stroke="white" stroke-width="0.1823" stroke-miterlimit="10"/>
<path d="M167.767 50.0725C163.122 50.0725 159.285 46.1948 159.285 41.5008C159.285 36.8067 163.122 32.9291 167.767 32.9291C172.413 32.9291 176.25 36.8067 176.25 41.5008C176.452 46.1948 172.615 50.0725 167.767 50.0725ZM167.767 35.3781C164.536 35.3781 161.91 38.0312 161.91 41.2967C161.91 44.5621 164.536 47.2153 167.767 47.2153C170.999 47.2153 173.625 44.5621 173.625 41.2967C173.625 38.0312 170.999 35.3781 167.767 35.3781Z" fill="#F7F8F8" stroke="white" stroke-width="0.1823" stroke-miterlimit="10"/>
<path d="M173.625 82.1145C173.019 82.1145 172.414 81.7063 172.414 80.89L160.497 2.31585C160.295 1.49949 160.901 0.8872 161.507 0.8872C162.315 0.683112 162.921 1.29538 162.921 1.90764L174.837 80.4818C175.039 81.2981 174.635 82.1145 173.625 82.1145C173.827 82.1145 173.827 82.1145 173.625 82.1145Z" fill="#F7F8F8"/>
<path d="M173.625 82.1145C173.019 82.1145 172.414 81.7063 172.414 80.89L160.497 2.31585C160.295 1.49949 160.901 0.8872 161.507 0.8872C162.315 0.683112 162.921 1.29538 162.921 1.90764L174.837 80.4818C175.039 81.2981 174.635 82.1145 173.625 82.1145ZM173.625 82.1145C173.827 82.1145 173.827 82.1145 173.625 82.1145Z" stroke="white" stroke-width="0.1823" stroke-miterlimit="10"/>
<path d="M161.909 82.1145C161.707 82.1145 161.707 82.1145 161.909 82.1145C160.899 81.9104 160.495 81.2981 160.697 80.4818L172.614 1.90766C172.816 1.0913 173.422 0.683125 174.028 0.887214C174.836 1.0913 175.239 1.70359 175.037 2.31586L163.121 80.89C163.121 81.7063 162.515 82.1145 161.909 82.1145Z" fill="#F7F8F8" stroke="white" stroke-width="0.1823" stroke-miterlimit="10"/>
<path d="M231.188 82.3185L200.488 61.5015V26.8064L227.148 1.29533C227.754 0.887152 228.562 0.887152 228.966 1.29533C229.37 1.9076 229.37 2.72394 228.966 3.13211L203.113 28.0309V60.0728L230.784 78.849L257.646 52.9297C258.252 52.5216 259.06 52.5216 259.464 52.9297C259.868 53.542 259.868 54.3583 259.464 54.7665L231.188 82.3185Z" fill="#F7F8F8" stroke="white" stroke-width="0.1823" stroke-miterlimit="10"/>
<path d="M202.107 62.3178C201.703 62.3178 201.501 62.1137 201.097 61.9096C200.693 61.2973 200.693 60.481 201.097 60.0728L249.368 13.7447C249.974 13.3365 250.782 13.3365 251.186 13.7447C251.59 14.3569 251.59 15.1733 251.186 15.5815L202.915 61.9096C202.915 62.1137 202.511 62.3178 202.107 62.3178Z" fill="#F7F8F8" stroke="white" stroke-width="0.1823" stroke-miterlimit="10"/>
<path d="M293.596 24.7655C290.769 24.7655 288.345 22.3164 288.345 19.4592C288.345 16.602 290.769 14.1529 293.596 14.1529C296.424 14.1529 298.848 16.602 298.848 19.4592C298.848 22.3164 296.424 24.7655 293.596 24.7655ZM293.596 16.806C292.183 16.806 290.971 18.0306 290.971 19.4592C290.971 20.8878 292.183 22.1123 293.596 22.1123C295.01 22.1123 296.222 20.8878 296.222 19.4592C296.222 18.0306 295.01 16.806 293.596 16.806Z" fill="#F7F8F8" stroke="white" stroke-width="0.1823" stroke-miterlimit="10"/>
<path d="M298.041 82.1144C297.435 82.1144 296.627 82.1144 295.819 81.9104C292.991 81.2981 290.164 80.0735 287.74 78.2367L271.784 65.9914C271.178 65.5832 271.178 64.7669 271.582 64.1546C271.986 63.5424 272.794 63.5423 273.4 63.9505L289.356 76.1958C291.376 77.8285 293.799 78.849 296.223 79.2572C296.829 79.4613 297.435 79.4613 298.041 79.4613C306.523 79.4613 313.391 72.9304 313.391 64.971C313.391 63.9505 313.189 62.9301 312.785 61.7055C311.775 58.6442 309.755 55.787 306.725 53.542L280.065 33.3372C275.622 30.0718 272.996 25.1737 272.996 20.0715C272.996 19.6633 272.996 19.4592 272.996 19.051C273.198 8.84659 281.681 0.683044 292.587 0.683044H292.789C296.425 0.683044 300.06 1.9076 302.888 4.15258L315.208 13.5407L313.593 15.5816L301.272 6.19346C298.849 4.35666 295.617 3.13213 292.587 3.13213H292.385C283.095 3.13213 275.622 10.0711 275.42 18.8469C275.42 19.051 275.42 19.4592 275.42 19.6633C275.42 23.9492 277.641 28.031 281.479 30.8882L308.139 51.093C311.573 53.7461 313.996 57.0115 315.006 60.6851C315.41 62.1137 315.612 63.5423 315.612 64.7669C316.016 74.5631 307.937 82.1144 298.041 82.1144Z" fill="#F7F8F8" stroke="white" stroke-width="0.1823" stroke-miterlimit="10"/>
<path d="M297.636 64.5629C297.434 64.5629 297.03 64.5629 296.828 64.3588L282.488 53.542C281.882 53.1339 281.882 52.3175 282.286 51.7052C282.69 51.093 283.498 51.093 284.104 51.5011L298.444 62.3179C299.05 62.7261 299.05 63.5424 298.646 64.1547C298.242 64.3588 298.04 64.5629 297.636 64.5629Z" fill="#F7F8F8" stroke="white" stroke-width="0.1823" stroke-miterlimit="10"/>
<path d="M6.39282 41.9089H0.939588C0.737616 41.9089 0.535645 41.7048 0.535645 41.5007C0.535645 41.2966 0.737616 41.0926 0.939588 41.0926H6.39282C6.59479 41.0926 6.79677 41.2966 6.79677 41.5007C6.79677 41.7048 6.59479 41.9089 6.39282 41.9089Z" fill="#F7F8F8" stroke="white" stroke-width="0.1823" stroke-miterlimit="10"/>
<path d="M318.843 41.9089H308.34C308.138 41.9089 307.936 41.7048 307.936 41.5007C307.936 41.2966 308.138 41.0926 308.34 41.0926H318.843C319.045 41.0926 319.247 41.2966 319.247 41.5007C319.448 41.7048 319.247 41.9089 318.843 41.9089ZM298.039 41.9089H287.537C287.335 41.9089 287.133 41.7048 287.133 41.5007C287.133 41.2966 287.335 41.0926 287.537 41.0926H298.039C298.241 41.0926 298.443 41.2966 298.443 41.5007C298.443 41.7048 298.241 41.9089 298.039 41.9089ZM277.236 41.9089H266.734C266.532 41.9089 266.33 41.7048 266.33 41.5007C266.33 41.2966 266.532 41.0926 266.734 41.0926H277.236C277.438 41.0926 277.64 41.2966 277.64 41.5007C277.64 41.7048 277.438 41.9089 277.236 41.9089ZM256.433 41.9089H245.931C245.729 41.9089 245.527 41.7048 245.527 41.5007C245.527 41.2966 245.729 41.0926 245.931 41.0926H256.433C256.635 41.0926 256.837 41.2966 256.837 41.5007C256.837 41.7048 256.635 41.9089 256.433 41.9089ZM235.428 41.9089H224.926C224.724 41.9089 224.522 41.7048 224.522 41.5007C224.522 41.2966 224.724 41.0926 224.926 41.0926H235.428C235.63 41.0926 235.832 41.2966 235.832 41.5007C236.034 41.7048 235.832 41.9089 235.428 41.9089ZM214.625 41.9089H204.324C204.122 41.9089 203.921 41.7048 203.921 41.5007C203.921 41.2966 204.122 41.0926 204.324 41.0926H214.827C215.029 41.0926 215.231 41.2966 215.231 41.5007C215.231 41.7048 215.029 41.9089 214.625 41.9089ZM193.822 41.9089H183.319C183.117 41.9089 182.915 41.7048 182.915 41.5007C182.915 41.2966 183.117 41.0926 183.319 41.0926H193.822C194.024 41.0926 194.226 41.2966 194.226 41.5007C194.428 41.7048 194.024 41.9089 193.822 41.9089ZM173.019 41.9089H162.516C162.314 41.9089 162.112 41.7048 162.112 41.5007C162.112 41.2966 162.314 41.0926 162.516 41.0926H173.019C173.221 41.0926 173.423 41.2966 173.423 41.5007C173.423 41.7048 173.221 41.9089 173.019 41.9089ZM152.216 41.9089H141.713C141.511 41.9089 141.309 41.7048 141.309 41.5007C141.309 41.2966 141.511 41.0926 141.713 41.0926H152.216C152.418 41.0926 152.62 41.2966 152.62 41.5007C152.62 41.7048 152.418 41.9089 152.216 41.9089ZM131.413 41.9089H120.91C120.708 41.9089 120.506 41.7048 120.506 41.5007C120.506 41.2966 120.708 41.0926 120.91 41.0926H131.413C131.615 41.0926 131.817 41.2966 131.817 41.5007C131.817 41.7048 131.615 41.9089 131.413 41.9089ZM110.408 41.9089H99.905C99.703 41.9089 99.501 41.7048 99.501 41.5007C99.501 41.2966 99.703 41.0926 99.905 41.0926H110.408C110.609 41.0926 110.811 41.2966 110.811 41.5007C111.013 41.7048 110.811 41.9089 110.408 41.9089ZM89.6044 41.9089H79.1019C78.8999 41.9089 78.6979 41.7048 78.6979 41.5007C78.6979 41.2966 78.8999 41.0926 79.1019 41.0926H89.6044C89.8064 41.0926 90.0083 41.2966 90.0083 41.5007C90.2103 41.7048 90.0083 41.9089 89.6044 41.9089ZM68.8013 41.9089H58.2987C58.0968 41.9089 57.8948 41.7048 57.8948 41.5007C57.8948 41.2966 58.0968 41.0926 58.2987 41.0926H68.8013C69.0033 41.0926 69.2052 41.2966 69.2052 41.5007C69.2052 41.7048 69.0033 41.9089 68.8013 41.9089ZM47.9982 41.9089H37.4956C37.2937 41.9089 37.0917 41.7048 37.0917 41.5007C37.0917 41.2966 37.2937 41.0926 37.4956 41.0926H47.9982C48.2001 41.0926 48.4021 41.2966 48.4021 41.5007C48.4021 41.7048 48.2001 41.9089 47.9982 41.9089ZM27.1951 41.9089H16.6925C16.4905 41.9089 16.2886 41.7048 16.2886 41.5007C16.2886 41.2966 16.4905 41.0926 16.6925 41.0926H27.1951C27.397 41.0926 27.599 41.2966 27.599 41.5007C27.599 41.7048 27.397 41.9089 27.1951 41.9089Z" fill="#F7F8F8" stroke="white" stroke-width="0.1823" stroke-miterlimit="10"/>
<path d="M334.596 41.9089H329.345C329.143 41.9089 328.941 41.7048 328.941 41.5007C328.941 41.2966 329.143 41.0926 329.345 41.0926H334.596C334.798 41.0926 335 41.2966 335 41.5007C335 41.7048 334.798 41.9089 334.596 41.9089Z" fill="#F7F8F8" stroke="white" stroke-width="0.1823" stroke-miterlimit="10"/>
<path d="M49.8163 121.504H46.3828V120.483H54.8657V121.504H51.2302V131.504H49.8163V121.504Z" fill="#F7F8F8" stroke="white" stroke-width="0.1823" stroke-miterlimit="10"/>
<path d="M67.3877 120.483H68.8015L70.0133 126.606C70.2153 127.83 70.4173 129.055 70.8212 130.279C71.0232 129.055 71.4271 127.83 71.6291 126.606L73.2449 120.483H74.4567L76.0725 126.606C76.2744 127.83 76.6784 129.055 76.8804 130.279C77.0823 129.055 77.2843 127.83 77.4863 126.606L78.6981 120.483H79.9099L77.4863 131.504H75.8705L74.0528 124.565C73.8508 123.749 73.6488 122.932 73.4468 122.116C73.2449 122.932 73.0429 123.749 72.8409 124.565L71.0232 131.504H69.4074L67.3877 120.483Z" fill="#F7F8F8" stroke="white" stroke-width="0.1823" stroke-miterlimit="10"/>
<path d="M94.4517 120.483H95.8655V131.504H94.4517V120.483Z" fill="#F7F8F8" stroke="white" stroke-width="0.1823" stroke-miterlimit="10"/>
<path d="M110.812 120.483H112.226L116.67 127.626L117.882 129.871C117.882 128.851 117.68 127.626 117.68 126.402V120.483H118.891V131.504H117.478L113.034 124.361L111.822 122.116C111.822 123.136 112.024 124.361 112.024 125.585V131.708H110.812V120.483Z" fill="#F7F8F8" stroke="white" stroke-width="0.1823" stroke-miterlimit="10"/>
<path d="M148.38 130.075L149.39 129.463C149.996 130.279 150.602 130.688 151.409 130.688C152.621 130.688 153.227 130.075 153.227 128.238V120.483H154.641V128.443C154.641 130.279 153.833 131.912 151.611 131.912C150.198 131.708 148.986 131.096 148.38 130.075Z" fill="#F7F8F8" stroke="white" stroke-width="0.1823" stroke-miterlimit="10"/>
<path d="M168.98 125.993C168.98 122.524 171 120.279 173.828 120.279C176.655 120.279 178.675 122.524 178.675 125.993C178.675 129.463 176.655 131.708 173.828 131.708C171 131.708 168.98 129.463 168.98 125.993ZM177.463 125.993C177.463 123.136 176.049 121.504 173.828 121.504C171.606 121.504 170.192 123.34 170.192 125.993C170.192 128.851 171.606 130.688 173.828 130.688C176.049 130.688 177.463 128.851 177.463 125.993Z" fill="#F7F8F8" stroke="white" stroke-width="0.1823" stroke-miterlimit="10"/>
<path d="M193.218 127.014V120.483H194.632V127.014C194.632 129.667 195.843 130.483 197.459 130.483C199.075 130.483 200.287 129.667 200.287 127.014V120.483H201.499V127.014C201.499 130.483 199.681 131.708 197.459 131.708C195.237 131.708 193.218 130.688 193.218 127.014Z" fill="#F7F8F8" stroke="white" stroke-width="0.1823" stroke-miterlimit="10"/>
<path d="M222.906 131.504L220.079 126.81H217.857V131.504H216.443V120.483H220.079C222.503 120.483 224.118 121.299 224.118 123.544C224.118 125.381 223.108 126.198 221.493 126.606L224.522 131.504H222.906ZM217.857 125.789H219.877C221.695 125.789 222.704 125.177 222.704 123.544C222.704 122.116 221.695 121.504 219.877 121.504H217.857V125.789Z" fill="#F7F8F8" stroke="white" stroke-width="0.1823" stroke-miterlimit="10"/>
<path d="M238.257 120.483H239.671L244.114 127.626L245.326 129.871C245.326 128.851 245.124 127.626 245.124 126.402V120.483H246.336V131.504H244.922L240.479 124.361L239.267 122.116C239.267 123.136 239.469 124.361 239.469 125.585V131.708H238.257V120.483Z" fill="#F7F8F8" stroke="white" stroke-width="0.1823" stroke-miterlimit="10"/>
<path d="M261.483 120.483H268.148V121.504H262.897V125.177H267.341V126.198H262.897V130.483H268.35V131.504H261.483V120.483Z" fill="#F7F8F8" stroke="white" stroke-width="0.1823" stroke-miterlimit="10"/>
<path d="M284.508 127.218L281.074 120.483H282.488L284.104 123.749C284.508 124.565 284.912 125.381 285.316 126.198C285.72 125.381 286.124 124.565 286.527 123.749L288.143 120.483H289.557L286.124 127.218V131.504H284.912V127.218H284.508Z" fill="#F7F8F8" stroke="white" stroke-width="0.1823" stroke-miterlimit="10"/>
</svg>
