<svg width="30" height="30" viewBox="0 0 30 30" fill="none" xmlns="http://www.w3.org/2000/svg">
<path d="M15.0048 22.9418C10.8038 22.7301 7.04717 21.3227 3.81966 18.4867C3.17415 17.9365 2.58156 17.3121 2.0313 16.6561C1.11066 15.5555 1.11066 14.4127 2.0313 13.3227C4.95193 9.86241 8.66622 7.91532 13.0366 7.20632C16.1689 6.69838 19.1107 7.41796 21.9678 8.67722C24.3276 9.72484 26.3382 11.291 28.0313 13.2804C28.6239 13.9788 28.899 14.7513 28.6239 15.6719C28.5287 15.9894 28.3699 16.2539 28.1689 16.5079C25.8937 19.2804 23.0366 21.1322 19.6821 22.1693C18.8355 22.4338 17.9678 22.6349 17.0895 22.7619C16.4017 22.8677 15.7033 22.9735 15.0048 22.9418ZM15.0578 9.69309C12.4969 9.60844 9.97839 11.7354 9.90431 14.8254C9.84082 17.8624 12.0736 20.2645 15.026 20.2645C18.1371 20.2645 20.1689 17.6613 20.1583 14.9841C20.1477 12.0317 17.9043 9.70367 15.0578 9.69309ZM3.62918 15.0053C3.62918 15.5555 3.92548 15.9576 4.28527 16.3174C5.25881 17.2804 6.31701 18.127 7.5022 18.8042C8.35934 19.3016 9.25881 19.7248 10.19 20.0529C10.2853 20.0846 10.4017 20.1693 10.4863 20.0423C10.5604 19.9153 10.444 19.8412 10.3805 19.7566C10.3382 19.7143 10.2958 19.6719 10.2535 19.619C9.05775 18.2751 8.43341 16.6878 8.46516 14.8677C8.48632 13.1534 9.06833 11.6296 10.1794 10.3386C10.2641 10.2434 10.4228 10.1481 10.317 9.99997C10.2112 9.8624 10.063 9.96823 9.94664 10.0106C7.71384 10.8465 5.74558 12.1164 4.08421 13.873C3.79849 14.1904 3.62918 14.5608 3.62918 15.0053ZM26.4757 14.9629C26.4334 14.5079 26.2324 14.127 25.9043 13.7883C24.3488 12.1799 22.5392 10.9735 20.4863 10.1587C20.317 10.0952 20.0948 9.89415 19.9678 10.074C19.8302 10.2645 20.0948 10.4127 20.2006 10.5502C21.4493 12.1587 21.9572 13.9788 21.6503 16.0211C21.4387 17.4391 20.8249 18.6455 19.8937 19.6825C19.8197 19.7672 19.6821 19.8412 19.7667 19.9894C19.8408 20.1058 19.9678 20.0317 20.063 20C22.3276 19.1534 24.3276 17.873 26.0101 16.0846C26.2958 15.7777 26.4546 15.4074 26.4757 14.9629Z" fill="black"/>
<path d="M14.9627 18.3278C13.1532 18.3278 11.6611 16.7934 11.6611 14.931C11.6611 13.0686 13.1532 11.5342 14.9627 11.5342C16.7722 11.5342 18.2537 13.0686 18.2537 14.931C18.2537 16.7934 16.7722 18.3278 14.9627 18.3278Z" fill="black"/>
</svg>
