<svg width="30" height="30" viewBox="0 0 30 30" fill="none" xmlns="http://www.w3.org/2000/svg">
<path d="M28.5181 14.3803C28.37 14.2639 28.1901 14.1898 27.9678 14.1898C27.5869 14.1898 27.3329 14.4015 27.1107 14.6766C26.7297 15.1528 25.9255 16.0523 25.9255 16.0523C24.1901 17.8724 22.1372 19.3433 19.5128 20.1581C18.6663 20.4226 17.7985 20.6237 16.9202 20.7507C16.2853 20.8459 15.6504 20.9411 14.9943 20.9306C14.3382 20.9411 13.7033 20.8459 13.0684 20.7507C12.1901 20.6237 11.3223 20.4226 10.4758 20.1581C7.86202 19.3433 5.79853 17.8724 4.06308 16.0523C4.06308 16.0523 3.25885 15.1528 2.8779 14.6766C2.65567 14.4015 2.4017 14.1792 2.02075 14.1898C1.79853 14.1898 1.61864 14.2639 1.47049 14.3803C1.03663 14.7189 0.962551 15.3433 1.29059 15.7877C1.69271 16.3274 2.60276 17.3009 2.60276 17.3009C4.83557 19.6713 7.20594 21.1845 10.3911 22.1687C11.2377 22.4332 12.1054 22.6343 12.9837 22.7612C13.6504 22.8565 14.317 22.9517 14.9943 22.9411C15.6715 22.9623 16.3382 22.8565 17.0049 22.7612C17.8832 22.6343 18.7509 22.4332 19.5975 22.1687C22.7827 21.1845 25.153 19.6713 27.3858 17.3009C27.3858 17.3009 28.2959 16.3274 28.698 15.7877C29.026 15.3538 28.952 14.7189 28.5181 14.3803Z" fill="black"/>
<path d="M10.508 26.9309C10.4234 26.9309 10.3281 26.9203 10.2435 26.8886C9.74613 26.7404 9.47099 26.2219 9.61914 25.7245L10.9419 21.3118C11.09 20.8145 11.6191 20.5394 12.1059 20.6875C12.6033 20.8356 12.8784 21.3542 12.7303 21.8515L11.4075 26.2642C11.2911 26.6663 10.9101 26.9309 10.508 26.9309Z" fill="black"/>
<path d="M2.75108 23.2375C2.5077 23.2375 2.27489 23.1422 2.08442 22.9623C1.71405 22.592 1.71405 21.9994 2.08442 21.6396L5.34368 18.3803C5.71405 18.0099 6.30664 18.0099 6.66643 18.3803C7.02622 18.7507 7.0368 19.3433 6.66643 19.7031L3.40717 22.9623C3.22728 23.1422 2.99447 23.2375 2.75108 23.2375Z" fill="black"/>
<path d="M19.481 26.9309C19.0789 26.9309 18.7085 26.6663 18.5815 26.2642L17.2588 21.8515C17.1106 21.3542 17.3858 20.8356 17.8831 20.6875C18.3805 20.5394 18.899 20.8145 19.0472 21.3118L20.3699 25.7245C20.518 26.2219 20.2429 26.7404 19.7456 26.8886C19.6609 26.9097 19.5763 26.9309 19.481 26.9309Z" fill="black"/>
<path d="M27.2486 23.2375C27.0052 23.2375 26.7724 23.1422 26.582 22.9623L23.3227 19.7031C22.9523 19.3327 22.9523 18.7401 23.3227 18.3803C23.6931 18.0099 24.2857 18.0099 24.6455 18.3803L27.9047 21.6396C28.2751 22.0099 28.2751 22.6025 27.9047 22.9623C27.7248 23.1422 27.4814 23.2375 27.2486 23.2375Z" fill="black"/>
</svg>
