<svg width="119" height="30" viewBox="0 0 119 30" fill="none" xmlns="http://www.w3.org/2000/svg">
<path d="M23.3572 29.6878C23.1442 29.6878 23.0023 29.5444 22.9313 29.401L13.7045 2.72126L4.47759 29.401C4.40662 29.6161 4.12272 29.7596 3.90979 29.6878C3.69686 29.6161 3.55491 29.3292 3.62588 29.1141L13.1366 1.71717C13.2076 1.43029 13.4915 1.28687 13.7754 1.28687C14.0593 1.28687 14.2723 1.43029 14.4142 1.71717L23.854 29.1141C23.925 29.3292 23.783 29.6161 23.5701 29.6878C23.4991 29.6878 23.4281 29.6878 23.3572 29.6878Z" fill="#F7F8F8" stroke="white" stroke-width="0.1823" stroke-miterlimit="10"/>
<path d="M22.2215 26.1735H5.18726C4.90336 26.1735 4.69043 25.9584 4.69043 25.6715C4.69043 25.3846 4.90336 25.1694 5.18726 25.1694H22.2215C22.5054 25.1694 22.7183 25.3846 22.7183 25.6715C22.6473 25.9584 22.4344 26.1735 22.2215 26.1735Z" fill="#F7F8F8" stroke="white" stroke-width="0.1823" stroke-miterlimit="10"/>
<path d="M36.6299 29.6879C30.3131 29.6879 25.1318 23.2331 25.1318 15.3439C25.1318 7.45477 30.2421 1 36.6299 1C40.9594 1 44.8631 4.01224 46.8504 8.74574C46.9214 8.9609 46.8504 9.24777 46.5665 9.39121C46.3536 9.46293 46.0697 9.39122 45.9278 9.10434C44.0824 4.65772 40.5336 1.93237 36.5589 1.93237C30.7389 1.93237 25.9835 7.95681 25.9835 15.3439C25.9835 22.7311 30.7389 28.7555 36.5589 28.7555C40.4626 28.7555 44.0824 26.0302 45.9278 21.5836C45.9987 21.3684 46.2826 21.225 46.5665 21.2967C46.7795 21.3684 46.9214 21.6553 46.8504 21.9422C44.8631 26.7474 40.9594 29.6879 36.6299 29.6879Z" fill="#F7F8F8" stroke="white" stroke-width="0.1823" stroke-miterlimit="10"/>
<path d="M41.8822 19.2886C41.7402 19.2886 41.5273 19.2169 41.3853 19.1452C41.1014 19.0017 40.9595 18.7149 40.9595 18.3563V12.3318C40.9595 11.9732 41.1014 11.6863 41.3853 11.5429C41.6692 11.3994 42.0241 11.3994 42.308 11.5429L47.8441 14.5551C48.128 14.6986 48.341 15.0571 48.341 15.344C48.341 15.6309 48.128 15.9895 47.8441 16.1329L42.308 19.1452C42.1661 19.2886 42.0241 19.2886 41.8822 19.2886ZM41.8822 12.4035V18.428L47.3473 15.4157L41.8822 12.4035Z" fill="#F7F8F8" stroke="white" stroke-width="0.1823" stroke-miterlimit="10"/>
<path d="M65.3049 2.00409H54.2327C53.9488 2.00409 53.7358 1.78892 53.7358 1.50205C53.7358 1.21517 53.9488 1 54.2327 1H65.3049C65.5888 1 65.8017 1.21517 65.8017 1.50205C65.8017 1.78892 65.5888 2.00409 65.3049 2.00409Z" fill="#F7F8F8" stroke="white" stroke-width="0.1823" stroke-miterlimit="10"/>
<path d="M65.3039 29.6879H54.2317C53.9478 29.6879 53.7349 29.4728 53.7349 29.1859C53.7349 28.899 53.9478 28.6838 54.2317 28.6838H65.3039C65.5878 28.6838 65.8008 28.899 65.8008 29.1859C65.8008 29.4728 65.5878 29.6879 65.3039 29.6879Z" fill="#F7F8F8" stroke="white" stroke-width="0.1823" stroke-miterlimit="10"/>
<path d="M59.7681 18.4279C58.1357 18.4279 56.7871 17.0652 56.7871 15.4157C56.7871 13.7661 58.1357 12.4034 59.7681 12.4034C61.4005 12.4034 62.7491 13.7661 62.7491 15.4157C62.8201 17.0652 61.4715 18.4279 59.7681 18.4279ZM59.7681 13.2641C58.6325 13.2641 57.7098 14.1964 57.7098 15.3439C57.7098 16.4914 58.6325 17.4238 59.7681 17.4238C60.9037 17.4238 61.8264 16.4914 61.8264 15.3439C61.8264 14.1964 60.9037 13.2641 59.7681 13.2641Z" fill="#F7F8F8" stroke="white" stroke-width="0.1823" stroke-miterlimit="10"/>
<path d="M61.8266 29.6879C61.6137 29.6879 61.4007 29.5445 61.4007 29.2576L57.2131 1.64551C57.1422 1.35863 57.3551 1.14346 57.568 1.14346C57.8519 1.07174 58.0649 1.2869 58.0649 1.50206L62.2524 29.1141C62.3234 29.401 62.1815 29.6879 61.8266 29.6879C61.8976 29.6879 61.8976 29.6879 61.8266 29.6879Z" fill="#F7F8F8"/>
<path d="M61.8266 29.6879C61.6137 29.6879 61.4007 29.5445 61.4007 29.2576L57.2131 1.64551C57.1422 1.35863 57.3551 1.14346 57.568 1.14346C57.8519 1.07174 58.0649 1.2869 58.0649 1.50206L62.2524 29.1141C62.3234 29.401 62.1815 29.6879 61.8266 29.6879ZM61.8266 29.6879C61.8976 29.6879 61.8976 29.6879 61.8266 29.6879Z" stroke="white" stroke-width="0.1823" stroke-miterlimit="10"/>
<path d="M57.7092 29.6879C57.6382 29.6879 57.6382 29.6879 57.7092 29.6879C57.3543 29.6162 57.2124 29.4011 57.2834 29.1142L61.4709 1.50212C61.5419 1.21524 61.7548 1.0718 61.9678 1.14352C62.2517 1.21524 62.3936 1.43041 62.3227 1.64557L58.1351 29.2576C58.1351 29.5445 57.9222 29.6879 57.7092 29.6879Z" fill="#F7F8F8" stroke="white" stroke-width="0.1823" stroke-miterlimit="10"/>
<path d="M82.0544 29.7596L71.2661 22.4442V10.2519L80.6349 1.2869C80.8479 1.14346 81.1318 1.14346 81.2737 1.2869C81.4157 1.50206 81.4157 1.78893 81.2737 1.93237L72.1888 10.6822V21.9422L81.9125 28.5404L91.3523 19.432C91.5652 19.2885 91.8491 19.2885 91.9911 19.432C92.133 19.6471 92.133 19.934 91.9911 20.0774L82.0544 29.7596Z" fill="#F7F8F8" stroke="white" stroke-width="0.1823" stroke-miterlimit="10"/>
<path d="M71.8349 22.7311C71.6929 22.7311 71.622 22.6593 71.48 22.5876C71.338 22.3725 71.338 22.0856 71.48 21.9422L88.4432 5.66178C88.6562 5.51834 88.9401 5.51834 89.082 5.66178C89.224 5.87694 89.224 6.16383 89.082 6.30727L72.1188 22.5876C72.1188 22.6593 71.9768 22.7311 71.8349 22.7311Z" fill="#F7F8F8" stroke="white" stroke-width="0.1823" stroke-miterlimit="10"/>
<path d="M103.986 9.53473C102.992 9.53473 102.141 8.67409 102.141 7.67001C102.141 6.66594 102.992 5.8053 103.986 5.8053C104.98 5.8053 105.831 6.66594 105.831 7.67001C105.831 8.67409 104.98 9.53473 103.986 9.53473ZM103.986 6.73764C103.489 6.73764 103.063 7.16798 103.063 7.67001C103.063 8.17205 103.489 8.60236 103.986 8.60236C104.483 8.60236 104.909 8.17205 104.909 7.67001C104.909 7.16798 104.483 6.73764 103.986 6.73764Z" fill="#F7F8F8" stroke="white" stroke-width="0.1823" stroke-miterlimit="10"/>
<path d="M105.548 29.6879C105.335 29.6879 105.051 29.6879 104.767 29.6162C103.773 29.4011 102.78 28.9707 101.928 28.3252L96.3208 24.0221C96.1079 23.8786 96.1079 23.5918 96.2498 23.3766C96.3918 23.1614 96.6757 23.1614 96.8886 23.3049L102.496 27.6081C103.205 28.1818 104.057 28.5404 104.909 28.6838C105.122 28.7556 105.335 28.7556 105.548 28.7556C108.529 28.7556 110.942 26.4605 110.942 23.6635C110.942 23.3049 110.871 22.9463 110.729 22.516C110.374 21.4402 109.664 20.4361 108.6 19.6472L99.2308 12.5469C97.6693 11.3994 96.7466 9.67814 96.7466 7.88514C96.7466 7.74171 96.7466 7.66999 96.7466 7.52655C96.8176 3.94056 99.7986 1.07178 103.631 1.07178H103.702C104.98 1.07178 106.257 1.5021 107.251 2.29102L111.581 5.59013L111.013 6.30733L106.683 3.00822C105.832 2.36274 104.696 1.93242 103.631 1.93242H103.56C100.295 1.93242 97.6693 4.37088 97.5984 7.45482C97.5984 7.52654 97.5984 7.67 97.5984 7.74172C97.5984 9.24783 98.3791 10.6822 99.7276 11.6863L109.096 18.7865C110.303 19.7189 111.155 20.8664 111.51 22.1574C111.652 22.6594 111.723 23.1614 111.723 23.5917C111.865 27.0343 109.025 29.6879 105.548 29.6879Z" fill="#F7F8F8" stroke="white" stroke-width="0.1823" stroke-miterlimit="10"/>
<path d="M105.406 23.5201C105.335 23.5201 105.193 23.5201 105.122 23.4484L100.083 19.6472C99.8696 19.5038 99.8696 19.2169 100.012 19.0018C100.153 18.7866 100.437 18.7866 100.65 18.93L105.69 22.7312C105.903 22.8746 105.903 23.1615 105.761 23.3767C105.619 23.4484 105.548 23.5201 105.406 23.5201Z" fill="#F7F8F8" stroke="white" stroke-width="0.1823" stroke-miterlimit="10"/>
<path d="M3.0583 15.5591H1.14195C1.07098 15.5591 1 15.4874 1 15.4156C1 15.3439 1.07098 15.2722 1.14195 15.2722H3.0583C3.12927 15.2722 3.20025 15.3439 3.20025 15.4156C3.20025 15.4874 3.12927 15.5591 3.0583 15.5591Z" fill="#F7F8F8" stroke="white" stroke-width="0.1823" stroke-miterlimit="10"/>
<path d="M112.857 15.5591H109.167C109.096 15.5591 109.025 15.4874 109.025 15.4156C109.025 15.3439 109.096 15.2722 109.167 15.2722H112.857C112.928 15.2722 112.999 15.3439 112.999 15.4156C113.07 15.4874 112.999 15.5591 112.857 15.5591ZM105.547 15.5591H101.856C101.785 15.5591 101.714 15.4874 101.714 15.4156C101.714 15.3439 101.785 15.2722 101.856 15.2722H105.547C105.618 15.2722 105.689 15.3439 105.689 15.4156C105.689 15.4874 105.618 15.5591 105.547 15.5591ZM98.2364 15.5591H94.5457C94.4747 15.5591 94.4037 15.4874 94.4037 15.4156C94.4037 15.3439 94.4747 15.2722 94.5457 15.2722H98.2364C98.3074 15.2722 98.3784 15.3439 98.3784 15.4156C98.3784 15.4874 98.3074 15.5591 98.2364 15.5591ZM90.9259 15.5591H87.2352C87.1642 15.5591 87.0932 15.4874 87.0932 15.4156C87.0932 15.3439 87.1642 15.2722 87.2352 15.2722H90.9259C90.9969 15.2722 91.0679 15.3439 91.0679 15.4156C91.0679 15.4874 90.9969 15.5591 90.9259 15.5591ZM83.5444 15.5591H79.8537C79.7827 15.5591 79.7117 15.4874 79.7117 15.4156C79.7117 15.3439 79.7827 15.2722 79.8537 15.2722H83.5444C83.6154 15.2722 83.6864 15.3439 83.6864 15.4156C83.7574 15.4874 83.6864 15.5591 83.5444 15.5591ZM76.2339 15.5591H72.6142C72.5432 15.5591 72.4722 15.4874 72.4722 15.4156C72.4722 15.3439 72.5432 15.2722 72.6142 15.2722H76.3049C76.3759 15.2722 76.4468 15.3439 76.4468 15.4156C76.4468 15.4874 76.3759 15.5591 76.2339 15.5591ZM68.9234 15.5591H65.2327C65.1617 15.5591 65.0907 15.4874 65.0907 15.4156C65.0907 15.3439 65.1617 15.2722 65.2327 15.2722H68.9234C68.9944 15.2722 69.0654 15.3439 69.0654 15.4156C69.1363 15.4874 68.9944 15.5591 68.9234 15.5591ZM61.6129 15.5591H57.9222C57.8512 15.5591 57.7802 15.4874 57.7802 15.4156C57.7802 15.3439 57.8512 15.2722 57.9222 15.2722H61.6129C61.6839 15.2722 61.7548 15.3439 61.7548 15.4156C61.7548 15.4874 61.6839 15.5591 61.6129 15.5591ZM54.3024 15.5591H50.6116C50.5407 15.5591 50.4697 15.4874 50.4697 15.4156C50.4697 15.3439 50.5407 15.2722 50.6116 15.2722H54.3024C54.3734 15.2722 54.4443 15.3439 54.4443 15.4156C54.4443 15.4874 54.3734 15.5591 54.3024 15.5591ZM46.9919 15.5591H43.3011C43.2302 15.5591 43.1592 15.4874 43.1592 15.4156C43.1592 15.3439 43.2302 15.2722 43.3011 15.2722H46.9919C47.0629 15.2722 47.1338 15.3439 47.1338 15.4156C47.1338 15.4874 47.0629 15.5591 46.9919 15.5591ZM39.6104 15.5591H35.9196C35.8487 15.5591 35.7777 15.4874 35.7777 15.4156C35.7777 15.3439 35.8487 15.2722 35.9196 15.2722H39.6104C39.6814 15.2722 39.7523 15.3439 39.7523 15.4156C39.8233 15.4874 39.7523 15.5591 39.6104 15.5591ZM32.2999 15.5591H28.6091C28.5382 15.5591 28.4672 15.4874 28.4672 15.4156C28.4672 15.3439 28.5382 15.2722 28.6091 15.2722H32.2999C32.3708 15.2722 32.4418 15.3439 32.4418 15.4156C32.5128 15.4874 32.4418 15.5591 32.2999 15.5591ZM24.9894 15.5591H21.2986C21.2276 15.5591 21.1567 15.4874 21.1567 15.4156C21.1567 15.3439 21.2276 15.2722 21.2986 15.2722H24.9894C25.0603 15.2722 25.1313 15.3439 25.1313 15.4156C25.1313 15.4874 25.0603 15.5591 24.9894 15.5591ZM17.6789 15.5591H13.9881C13.9171 15.5591 13.8462 15.4874 13.8462 15.4156C13.8462 15.3439 13.9171 15.2722 13.9881 15.2722H17.6789C17.7498 15.2722 17.8208 15.3439 17.8208 15.4156C17.8208 15.4874 17.7498 15.5591 17.6789 15.5591ZM10.3683 15.5591H6.6776C6.60662 15.5591 6.53564 15.4874 6.53564 15.4156C6.53564 15.3439 6.60662 15.2722 6.6776 15.2722H10.3683C10.4393 15.2722 10.5103 15.3439 10.5103 15.4156C10.5103 15.4874 10.4393 15.5591 10.3683 15.5591Z" fill="#F7F8F8" stroke="white" stroke-width="0.1823" stroke-miterlimit="10"/>
<path d="M118.394 15.5591H116.548C116.477 15.5591 116.406 15.4874 116.406 15.4156C116.406 15.3439 116.477 15.2722 116.548 15.2722H118.394C118.465 15.2722 118.536 15.3439 118.536 15.4156C118.536 15.4874 118.465 15.5591 118.394 15.5591Z" fill="#F7F8F8" stroke="white" stroke-width="0.1823" stroke-miterlimit="10"/>
</svg>
