<svg width="100" height="99" viewBox="0 0 100 99" fill="none" xmlns="http://www.w3.org/2000/svg">
<path d="M47.4464 0.258789C48.9027 0.258789 50.359 0.258789 51.8384 0.258789C54.0806 0.512698 56.3459 0.605028 58.565 1.08976C78.8373 5.47546 91.8282 17.64 97.584 37.4911C98.5317 40.7457 98.8322 44.1158 99.1096 47.4627C99.1096 48.917 99.1096 50.3712 99.1096 51.8484C98.8322 53.972 98.6935 56.1187 98.3005 58.2193C93.2845 86.0569 65.8695 104.177 38.4314 97.4366C20.5631 93.0509 8.70488 81.8097 2.64862 64.4516C2.50993 64.0361 2.14008 63.5052 2.48681 63.1589C2.85666 62.7896 3.34208 63.2282 3.75816 63.3898C9.12096 65.5826 14.4838 67.8216 19.8465 69.9914C20.8174 70.3838 21.3491 70.9147 21.6727 71.9534C23.3601 77.4471 28.3993 81.3711 33.8545 81.6943C42.3842 82.179 48.556 75.3235 48.556 68.4218C48.556 67.6139 48.8334 67.0599 49.5037 66.5982C54.5429 63.0204 59.5821 59.4426 64.6213 55.8417C65.176 55.4493 65.7308 55.2416 66.4243 55.2185C77.5197 54.8492 85.6564 45.1314 84.0614 34.1441C82.6745 24.634 74.3066 17.9862 64.3901 18.5402C55.4213 19.025 47.8856 26.7807 47.4927 35.9214C47.4696 36.5908 47.3771 37.2141 46.9841 37.768C43.4012 42.9847 39.8183 48.2014 36.2354 53.4411C35.8887 53.972 35.4495 54.226 34.8023 54.2029C32.2827 54.1567 29.948 54.8261 27.7752 56.1187C27.2204 56.4419 26.735 56.4881 26.1571 56.2341C17.8817 52.841 9.60638 49.4479 1.30792 46.0547C0.683802 45.8008 0.452647 45.4315 0.498878 44.739C0.683802 42.3615 1.07676 40.0071 1.724 37.7219C7.17926 18.5633 19.546 6.44493 38.9168 1.48217C41.7138 0.766607 44.6032 0.558863 47.4464 0.258789Z" fill="white"/>
<path d="M65.8694 49.3791C59.0041 49.3791 53.3408 43.6546 53.387 36.776C53.4332 29.9436 59.0965 24.3345 65.9387 24.3807C72.7809 24.4037 78.4211 30.0359 78.4211 36.8684C78.4211 43.747 72.7809 49.3791 65.8694 49.3791ZM75.0462 36.9145C75.0693 31.8825 71.0241 27.7738 66.0543 27.7507C60.8995 27.7276 56.7619 31.7902 56.7619 36.8914C56.7619 41.8542 60.8764 45.986 65.8463 46.0322C70.9086 46.0322 75.0231 41.9465 75.0462 36.9145Z" fill="white"/>
<path d="M31.0119 58.1962C33.1154 57.296 34.9646 57.2267 36.837 57.573C42.1073 58.5655 45.8751 63.5283 45.4128 68.768C44.9274 74.2617 40.3274 78.5781 34.849 78.5089C31.0581 78.4627 28.0531 76.8469 25.9496 73.6384C25.7646 73.3615 25.441 73.0152 25.6953 72.7151C25.9496 72.392 26.3425 72.7151 26.643 72.8306C28.3536 73.5 30.041 74.2617 31.7747 74.8849C35.4038 76.2006 39.3566 74.7002 41.0902 71.4225C43.1475 67.5677 41.5757 62.8589 37.5767 61.0123C35.9355 60.2505 34.248 59.6273 32.5837 58.9117C32.1676 58.7502 31.7747 58.5424 31.0119 58.1962Z" fill="white"/>
</svg>
