<svg width="111" height="118" viewBox="0 0 111 118" fill="none" xmlns="http://www.w3.org/2000/svg">
<path d="M82.5371 117.936C81.771 117.84 81.0049 117.777 80.2708 117.554C76.5361 116.374 74.2698 113.824 73.5675 109.999C72.6099 104.836 76.4722 99.9907 81.356 99.2894C84.963 98.7794 87.9635 99.9588 90.2936 102.796C90.7086 103.306 90.7086 103.306 90.2298 103.784C89.5276 104.421 88.8254 105.027 88.0912 105.632C87.8678 105.824 87.7401 105.856 87.5166 105.569C86.6229 104.357 85.4099 103.592 83.9416 103.306C81.6433 102.859 79.1855 104.039 78.0683 106.111C77.7491 106.716 77.5895 107.322 77.5895 107.991C77.5895 108.597 77.5256 109.202 77.6214 109.776C77.8129 110.956 78.4832 111.88 79.377 112.645C81.771 114.685 85.4418 114.271 87.357 111.784C87.772 111.242 87.772 111.242 88.2827 111.721C88.953 112.294 89.6233 112.9 90.2936 113.474C90.6448 113.792 90.6767 113.856 90.3575 114.239C88.7934 116.247 86.7505 117.49 84.2288 117.872C83.9096 117.936 83.5904 117.936 83.2712 118C83.0478 117.936 82.7924 117.936 82.5371 117.936Z" fill="white"/>
<path d="M110.722 91.1935C110.499 92.6279 109.701 93.7435 108.52 94.5403C105.647 96.4847 101.593 94.7953 100.955 91.3847C100.38 88.4841 102.232 86.0298 104.721 85.456C106.892 84.9779 110.148 86.221 110.691 89.3766C110.691 89.4404 110.722 89.5041 110.754 89.5679C110.722 90.1098 110.722 90.6516 110.722 91.1935ZM108.552 90.3966C108.552 88.7391 107.435 87.5916 105.807 87.5916C104.179 87.5916 102.998 88.771 102.998 90.3966C102.998 91.8629 104.307 93.1379 105.839 93.1379C107.435 93.1697 108.552 92.0222 108.552 90.3966Z" fill="white"/>
<path d="M62.0759 37.0702C62.0759 25.9141 62.0759 14.758 62.0759 3.60184C62.0759 2.61372 62.1078 1.62561 62.1078 0.637493C62.1078 0.095624 62.1078 0.095623 62.6504 0.0637484C65.0444 -9.73688e-07 67.4384 0 69.8324 0C71.6519 0 73.4713 -9.73688e-07 75.2908 0.0637484C78.0359 0.191247 80.6214 0.956237 83.0154 2.2631C88.1226 5.03619 91.2827 9.3074 92.6872 14.9173C92.9106 15.778 92.9745 16.6386 93.0064 17.4992C93.1021 20.081 93.0383 22.631 93.0703 25.2129C93.166 33.3409 93.1022 41.5008 93.1022 49.6289C93.1022 51.4776 93.1022 53.3263 93.0383 55.175C92.9745 56.6732 93.0383 58.1713 92.6872 59.6375C91.9849 62.5381 90.7082 65.1518 88.793 67.4468C86.0798 70.698 82.6643 72.8655 78.5466 73.9174C77.3018 74.2361 76.0249 74.3955 74.7162 74.4273C71.205 74.4911 67.6938 74.5548 64.1826 74.4911C63.6719 74.4911 63.1292 74.4592 62.6185 74.4273C62.2993 74.4273 62.2036 74.268 62.1716 73.9811C62.0759 72.9292 62.0759 71.8774 62.0759 70.7936C62.044 61.0719 62.0439 51.3182 62.0439 41.5964C62.0439 40.0983 62.044 38.6002 62.0759 37.0702C62.0759 37.0702 62.044 37.0702 62.0759 37.0702ZM76.7591 33.5321C73.2479 33.4365 69.3217 36.2734 69.3536 41.0546C69.3536 45.2302 72.8329 48.3857 76.8229 48.3857C81.2598 48.3857 84.1965 44.497 84.1965 40.9589C84.1645 36.7196 80.6214 33.4365 76.7591 33.5321Z" fill="white"/>
<path d="M54.6704 35.0306C54.6704 45.8998 54.6704 56.7691 54.6704 67.6065C54.6704 69.5827 54.7023 71.5589 54.5746 73.5352C54.5427 74.2683 54.4469 74.3639 53.7128 74.3958C51.5422 74.4914 49.4036 74.4595 47.233 74.4277C45.1901 74.3958 43.1792 74.3958 41.1363 74.3958C39.1572 74.3958 37.2101 74.3639 35.2311 74.2683C34.0819 74.2045 32.9967 73.8858 31.9433 73.5352C28.9109 72.5152 26.1977 70.9214 23.9633 68.5946C21.697 66.2359 20.1967 63.4628 19.271 60.3709C18.8561 58.9366 18.6965 57.4703 18.6646 55.9722C18.5688 50.9998 18.6327 46.0592 18.6007 41.0868C18.5369 35.2218 18.5369 29.3887 18.5688 23.5238C18.5688 21.6751 18.6007 19.8263 18.6965 17.9776C18.9199 13.5789 20.5479 9.72207 23.4845 6.43898C26.485 3.09214 30.2196 1.05216 34.6565 0.255293C35.4545 0.127795 36.2844 0.127795 37.0824 0.09592C38.1996 0.0640453 39.3488 0.0959181 40.466 0.0640434C44.2644 0.000294031 48.031 0.000292084 51.8295 0.0321668C52.5956 0.0321668 53.3617 0.0321677 54.1278 0.127792C54.4789 0.159666 54.5746 0.350913 54.5746 0.66966C54.6385 2.1359 54.6385 3.57026 54.6385 5.03649C54.7342 15.0451 54.7023 25.0219 54.6704 35.0306ZM48.446 37.2937C48.446 27.1256 48.446 16.9576 48.446 6.75773C48.446 6.63023 48.446 6.50273 48.446 6.37523C48.446 6.18398 48.3502 6.08835 48.1587 6.08835C47.9352 6.08835 47.6799 6.08835 47.4565 6.08835C44.0091 6.12023 40.5617 6.02461 37.1144 6.18398C36.2525 6.21585 35.3907 6.2796 34.5608 6.50273C30.4111 7.65021 27.5064 10.2002 25.7508 14.1208C25.3678 15.0133 25.0167 15.9376 24.9528 16.8939C24.8571 18.4876 24.8251 20.1132 24.8251 21.7388C24.7932 24.3844 24.7932 27.03 24.7613 29.6756C24.7294 34.8074 24.7294 39.9711 24.7932 45.103C24.8251 48.6092 24.8252 52.0835 24.9209 55.5897C24.9528 56.4503 24.889 57.311 25.0805 58.1397C26.1339 62.4428 28.6875 65.5028 32.7732 67.2877C33.8904 67.7977 35.1034 68.1165 36.3164 68.2121C38.0081 68.3396 39.668 68.2759 41.3597 68.3396C43.5303 68.4034 45.7328 68.4033 47.9033 68.4352C48.446 68.4352 48.446 68.4352 48.446 67.8933C48.446 57.6935 48.446 47.4936 48.446 37.2937Z" fill="white"/>
<path d="M36.2205 111.848C36.6036 110.446 37.0185 109.044 37.4015 107.609C38.0719 105.155 38.7103 102.7 39.3806 100.246C39.5402 99.6724 39.5402 99.6724 40.1467 99.6724C41.0723 99.6724 41.998 99.6724 42.9237 99.7361C43.3706 99.768 43.4344 99.8317 43.3068 100.278C41.7107 105.824 40.1467 111.338 38.5826 116.885C38.4868 117.235 38.3272 117.395 37.9442 117.363C36.8589 117.267 35.7417 117.331 34.6564 117.299C34.05 117.267 34.0499 117.267 33.8903 116.725C32.9647 113.41 32.0071 110.064 31.0495 106.749C31.0175 106.653 30.9856 106.557 30.9218 106.366C30.6345 107.004 30.4749 107.577 30.3153 108.183C29.4535 111.02 28.6235 113.888 27.8255 116.757C27.6659 117.363 27.6659 117.363 26.9956 117.363C25.9423 117.363 24.9208 117.331 23.8674 117.331C23.3567 117.331 23.261 117.235 23.1333 116.789C21.5692 111.275 20.037 105.792 18.473 100.278C18.3453 99.8317 18.4091 99.7999 18.8241 99.768C19.8136 99.6724 20.8031 99.7361 21.7926 99.7042C22.1118 99.7042 22.2396 99.7999 22.3353 100.119C23.1333 103.115 23.9313 106.079 24.7293 109.075C24.9847 110.064 25.2719 111.02 25.5592 112.072C25.6869 111.88 25.7188 111.721 25.7507 111.562C26.836 107.832 27.9532 104.071 29.0385 100.342C29.1981 99.7999 29.1981 99.8317 29.7727 99.7999C30.4749 99.768 31.2091 99.8317 31.9113 99.7361C32.2624 99.7042 32.454 99.8317 32.5497 100.182C33.3796 103.019 34.2095 105.856 35.0395 108.693C35.3587 109.777 35.7098 110.86 36.029 111.944C36.1247 111.848 36.1886 111.848 36.2205 111.848Z" fill="white"/>
<path d="M94.5713 108.501C94.5713 105.728 94.5713 102.923 94.5713 100.15C94.5713 99.672 94.5713 99.672 95.082 99.672C96.0077 99.672 96.9653 99.672 97.891 99.672C98.3379 99.672 98.3379 99.672 98.3379 100.118C98.3379 102.126 98.3379 104.166 98.3379 106.174C98.3379 106.621 98.3379 106.621 98.7848 106.621C101.179 106.621 103.605 106.621 105.999 106.621C106.35 106.621 106.446 106.525 106.446 106.174C106.446 104.134 106.446 102.126 106.446 100.086C106.446 99.672 106.477 99.6401 106.892 99.6401C107.85 99.7039 108.808 99.7039 109.765 99.7039C110.053 99.7039 110.18 99.7995 110.148 100.086V100.118C110.212 105.696 110.212 111.274 110.212 116.821C110.212 117.267 110.212 117.267 109.765 117.267C108.808 117.267 107.818 117.267 106.861 117.267C106.541 117.267 106.446 117.171 106.446 116.852C106.446 114.812 106.446 112.773 106.446 110.733C106.446 110.414 106.35 110.318 106.031 110.318C103.605 110.318 101.179 110.318 98.7528 110.318C98.4017 110.318 98.3379 110.446 98.3379 110.764C98.3379 112.773 98.3379 114.812 98.3379 116.821C98.3379 117.267 98.3059 117.299 97.891 117.299C96.9334 117.299 95.9758 117.299 95.0182 117.299C94.699 117.299 94.5713 117.203 94.5713 116.852C94.6032 114.079 94.5713 111.274 94.5713 108.501Z" fill="white"/>
<path d="M8.22694 117.745C6.69478 117.713 5.16263 117.681 3.69431 117.267C2.64095 116.98 1.61951 116.597 0.629989 116.183C0.183108 115.992 0.183084 115.96 0.406525 115.546C0.821486 114.749 1.26837 113.984 1.68333 113.187C1.81101 112.964 1.93869 112.9 2.16213 112.996C2.70477 113.219 3.24743 113.474 3.822 113.697C4.81152 114.111 5.83295 114.271 6.88631 114.334C7.90776 114.398 8.92919 114.398 9.95063 114.334C10.7806 114.271 11.5466 113.952 12.1531 113.41C13.015 112.677 12.8873 111.561 11.8978 111.019C11.0359 110.541 10.0783 110.382 9.15263 110.191C7.33319 109.84 5.51374 109.553 3.75813 108.916C3.02397 108.661 2.32172 108.342 1.71524 107.832C0.246917 106.589 -0.072253 104.326 0.949189 102.668C1.65143 101.553 2.67287 100.851 3.85391 100.309C4.97111 99.7995 6.18407 99.6082 7.39703 99.5126C9.85487 99.3532 12.185 99.7995 14.4833 100.564C15.1217 100.788 15.1217 100.788 14.8663 101.393C14.611 102.031 14.3237 102.668 14.0364 103.338C13.813 103.848 13.781 103.879 13.2065 103.72C12.4404 103.497 11.6424 103.242 10.8444 103.083C9.28033 102.796 7.68432 102.7 6.08831 102.987C5.67335 103.051 5.29032 103.178 4.9392 103.401C4.01352 103.943 3.98157 105.027 4.87533 105.601C5.48182 105.983 6.15216 106.143 6.8544 106.27C8.48233 106.621 10.1102 106.908 11.7062 107.354C12.7915 107.673 13.7811 108.087 14.7067 108.693C15.792 109.426 16.3346 110.446 16.3666 111.752C16.3985 112.741 16.3346 113.729 15.8558 114.653C15.2813 115.769 14.3237 116.47 13.1746 116.916C11.6105 117.586 9.91871 117.777 8.22694 117.745Z" fill="white"/>
<path d="M61.4056 110.414C61.4056 108.278 61.4056 106.174 61.4056 104.039C61.4056 103.593 61.4057 103.593 60.9588 103.593C59.3947 103.593 57.8306 103.593 56.2984 103.593C55.9792 103.593 55.8516 103.497 55.8516 103.178C55.8516 102.126 55.8516 101.106 55.8516 100.055C55.8516 99.7676 55.9473 99.6401 56.2665 99.6401C60.9588 99.672 65.683 99.7039 70.3752 99.7039C70.8221 99.7039 70.8221 99.7358 70.8221 100.182C70.8221 101.138 70.8221 102.126 70.8221 103.083C70.8221 103.401 70.7263 103.529 70.4071 103.529C68.875 103.529 67.3109 103.593 65.7787 103.593C65.4276 103.593 65.3318 103.688 65.3318 104.039C65.3318 108.278 65.3318 112.549 65.3318 116.789C65.3318 117.331 65.3318 117.331 64.8211 117.331C63.8316 117.331 62.842 117.331 61.8844 117.331C61.4376 117.331 61.4056 117.299 61.4056 116.852C61.4056 114.685 61.4056 112.549 61.4056 110.414Z" fill="white"/>
<path d="M47.6794 108.438C47.6794 105.665 47.6794 102.891 47.6794 100.118C47.6794 99.6402 47.6794 99.6083 48.1582 99.6402C49.1796 99.704 50.2011 99.6721 51.2544 99.704C51.6694 99.704 51.7013 99.7358 51.7013 100.182C51.7013 103.561 51.7013 106.94 51.7332 110.318C51.7651 112.486 51.7651 114.653 51.7651 116.821C51.7651 117.267 51.7332 117.299 51.2863 117.299C50.201 117.299 49.1477 117.299 48.0624 117.299C47.7432 117.299 47.6475 117.203 47.6475 116.884C47.6794 114.079 47.6794 111.274 47.6794 108.438Z" fill="white"/>
<path d="M71.9713 89.1214C71.9713 89.2489 71.9713 89.3764 71.9713 89.4721C71.9713 91.1933 71.9713 92.9145 71.9713 94.6039C71.9713 95.1139 71.9713 95.1139 71.4606 95.082C71.0775 95.0501 70.6626 95.0501 70.2795 95.0182C70.0561 95.0182 69.9922 94.9226 69.9603 94.6995C69.8646 91.8627 69.8965 89.0258 69.9284 86.2208C69.9284 85.7427 69.9922 85.679 70.471 85.6471C71.8117 85.4877 71.8117 85.4877 72.6097 86.5396C73.7589 88.0696 74.876 89.5677 76.0252 91.0977C76.089 91.1933 76.1528 91.257 76.2486 91.3527C76.3444 91.2252 76.3125 91.1295 76.3125 91.0339C76.3444 89.3764 76.3444 87.719 76.3763 86.0615C76.3763 85.6152 76.3763 85.6152 76.8232 85.5834C77.2381 85.5834 77.6531 85.6152 78.0362 85.5834C78.3873 85.5515 78.483 85.7109 78.483 86.0296C78.483 87.7508 78.483 89.4721 78.483 91.1933C78.483 92.3089 78.483 93.4564 78.483 94.572C78.483 95.0501 78.4511 95.0501 78.0042 95.0501C77.5254 95.0501 77.0147 95.1776 76.5998 94.9864C76.1848 94.7951 75.9933 94.2851 75.706 93.9026C74.5568 92.3727 73.4396 90.8427 72.2905 89.3127C72.2267 89.2171 72.1309 89.1214 72.0671 89.0258C72.0351 89.1214 72.0032 89.1214 71.9713 89.1214Z" fill="white"/>
<path d="M27.3788 89.0898C27.3788 89.5042 27.3788 89.8867 27.3788 90.301C27.3788 91.7673 27.3788 93.2335 27.3788 94.6997C27.3788 95.146 27.3788 95.146 26.9319 95.146C26.517 95.146 26.134 95.0822 25.719 95.0822C25.4956 95.0822 25.3679 94.9866 25.3998 94.7635C25.3998 94.7316 25.3998 94.6997 25.3998 94.6679C25.3679 92.4048 25.3679 90.1735 25.3359 87.9104C25.3359 87.3367 25.3679 86.7311 25.3679 86.1573C25.3679 85.9023 25.4956 85.7748 25.7509 85.7429C26.1978 85.6792 26.6447 85.6792 27.0915 85.6792C27.3469 85.6792 27.4427 85.8386 27.5704 85.9979C28.8472 87.7192 30.124 89.4085 31.4008 91.1298C31.4646 91.2254 31.5604 91.321 31.6881 91.4804C31.72 91.0979 31.7519 90.811 31.7519 90.4923C31.7519 89.0579 31.7838 87.5917 31.7838 86.1573C31.7838 85.7111 31.8158 85.6792 32.2626 85.6792C32.6776 85.6792 33.1245 85.6792 33.5394 85.6792C33.7948 85.6792 33.8906 85.7748 33.8906 86.0298C33.8906 88.9623 33.8906 91.9266 33.8906 94.8591C33.8906 95.1141 33.7948 95.2097 33.5394 95.1779C33.1245 95.1779 32.7414 95.1779 32.3265 95.1779C32.0711 95.1779 31.9115 95.0822 31.7519 94.891C30.4113 93.0741 29.0706 91.2573 27.73 89.4404C27.6342 89.3129 27.5385 89.2173 27.4746 89.0898C27.4427 89.0579 27.4108 89.0579 27.3788 89.0898Z" fill="white"/>
<path d="M7.42897 91.5439C7.42897 91.4164 7.42897 91.2889 7.42897 91.1614C7.42897 89.4721 7.42897 87.7508 7.42897 86.0615C7.42897 85.6471 7.4609 85.6152 7.87586 85.6471C8.29082 85.679 8.70579 85.679 9.12075 85.7109C9.34419 85.7109 9.43995 85.8065 9.43995 86.0296C9.43995 88.9302 9.43995 91.8308 9.43995 94.7314C9.43995 94.9545 9.37611 95.0502 9.12075 95.082C8.70579 95.082 8.32273 95.1139 7.90777 95.1458C7.65241 95.1776 7.46088 95.082 7.30128 94.8589C6.02448 93.1377 4.74771 91.4164 3.50282 89.7271C3.40706 89.5996 3.34319 89.4402 3.15167 89.3127C3.11975 89.7271 3.08785 90.0777 3.08785 90.4602C3.05593 91.8308 3.02399 93.2333 2.99207 94.6039C2.99207 95.0183 2.96015 95.0502 2.51327 95.0502C2.13023 95.0502 1.7472 95.082 1.36416 95.1139C1.01304 95.1458 0.949219 95.0183 0.949219 94.6995C0.949219 93.0739 0.949219 91.4483 0.949219 89.8227C0.949219 88.5796 0.949219 87.3046 0.949219 86.0615C0.949219 85.6471 0.981108 85.6152 1.39607 85.6152C1.77911 85.6152 2.19409 85.6152 2.57713 85.6152C2.8325 85.6152 3.02402 85.7109 3.18362 85.9021C4.52427 87.6871 5.8649 89.4721 7.20555 91.2571C7.23747 91.3846 7.26937 91.4802 7.42897 91.5439Z" fill="white"/>
<path d="M86.2389 90.3648C86.2389 88.9304 86.2389 87.4961 86.2389 86.0617C86.2389 85.6154 86.239 85.5836 86.6858 85.6155C88.0584 85.6473 89.431 85.6473 90.8035 85.7429C92.5591 85.8704 94.2828 87.4323 94.7297 89.3129C95.3362 91.8948 93.6763 94.4447 90.995 94.9229C89.4948 95.1779 87.9946 95.1141 86.4943 95.1141C86.207 95.1141 86.207 94.9229 86.207 94.7316C86.239 93.2972 86.2389 91.831 86.2389 90.3648ZM88.1861 90.3648C88.1861 91.1298 88.1861 91.9266 88.1861 92.6916C88.1861 92.8829 88.218 93.0423 88.4414 93.0423C89.1437 93.0423 89.8778 93.0741 90.5801 92.9466C91.9845 92.6916 92.7826 91.7354 92.7506 90.3648C92.7506 89.0579 91.8888 88.0698 90.5162 87.8467C89.8459 87.7192 89.1756 87.8148 88.5372 87.7829C88.2499 87.7829 88.1541 87.8786 88.1861 88.1654C88.1861 88.8667 88.1861 89.5998 88.1861 90.3648Z" fill="white"/>
<path d="M55.0846 90.3646C55.0846 88.9302 55.0846 87.4958 55.0846 86.0615C55.0846 85.6471 55.1166 85.6152 55.5315 85.6152C57.7021 85.6152 59.8407 85.6152 62.0113 85.6152C62.4262 85.6152 62.4582 85.6471 62.4262 86.0615C62.3943 86.4121 62.3624 86.7627 62.3624 87.1133C62.3624 87.4002 62.2666 87.464 61.9793 87.4958C60.4472 87.5596 58.9469 87.5596 57.4148 87.5596C57.0956 87.5596 56.9998 87.6552 56.9998 87.974C57.0318 88.3246 57.0318 88.6752 56.9998 89.0258C56.9998 89.3127 57.0956 89.3765 57.351 89.3765C58.7235 89.3765 60.0961 89.3765 61.4686 89.3765C61.9155 89.3765 61.9155 89.3765 61.9155 89.8227C61.9155 90.1414 61.9155 90.4602 61.9155 90.7789C61.9474 91.0658 61.8197 91.1614 61.5325 91.1614C60.1918 91.1614 58.8512 91.1614 57.5106 91.1614C56.9998 91.1614 56.9998 91.1614 56.9998 91.6714C56.9998 92.0858 56.9998 92.4683 56.9998 92.8827C56.9998 93.1695 57.0956 93.2333 57.351 93.2333C58.8831 93.2333 60.4153 93.2333 61.9474 93.2333C62.3943 93.2333 62.3943 93.2333 62.3943 93.6795C62.3943 94.062 62.3943 94.4445 62.3943 94.827C62.3943 95.0501 62.2986 95.1458 62.0751 95.1458C59.8407 95.1458 57.6063 95.1458 55.3719 95.1458C55.0847 95.1458 55.0527 94.9864 55.0527 94.7633C55.0847 93.2652 55.0846 91.8308 55.0846 90.3646Z" fill="white"/>
<path d="M43.3384 91.4164C43.3384 90.3646 43.3384 89.3446 43.3384 88.2927C43.3384 87.7508 43.3384 87.7508 42.7639 87.7508C42.0616 87.7508 41.3594 87.7508 40.6571 87.7508C40.3379 87.7508 40.2422 87.6552 40.2422 87.3365C40.2741 87.0177 40.2422 86.6671 40.2422 86.3484C40.2422 85.7746 40.306 85.7109 40.8806 85.679C42.7639 85.6152 44.6471 85.6152 46.5304 85.6152C47.0092 85.6152 47.488 85.6152 47.9668 85.6152C48.2222 85.6152 48.3499 85.679 48.3499 85.9659C48.3499 86.444 48.3499 86.9221 48.3499 87.4002C48.3499 87.6871 48.2222 87.7508 47.9668 87.7508C47.2646 87.7508 46.5304 87.7508 45.8282 87.7508C45.509 87.7508 45.3813 87.8465 45.4132 88.1652C45.4132 90.3008 45.4132 92.4364 45.4132 94.6039C45.4132 95.1458 45.4132 95.1458 44.9025 95.1458C44.4875 95.1458 44.1045 95.1458 43.6895 95.1458C43.4022 95.1458 43.3065 95.0501 43.3065 94.7633C43.3703 93.6477 43.3384 92.532 43.3384 91.4164Z" fill="white"/>
<path d="M18.4413 90.3963C18.4413 91.8307 18.4413 93.265 18.4413 94.6994C18.4413 95.1456 18.4413 95.1456 17.9944 95.1456C17.5795 95.1456 17.1646 95.1456 16.7496 95.1456C16.4942 95.1456 16.3984 95.05 16.3984 94.795C16.3984 91.8625 16.3984 88.9301 16.3984 85.9976C16.3984 85.7107 16.4942 85.647 16.7496 85.647C17.1965 85.647 17.6433 85.647 18.0902 85.647C18.3775 85.647 18.4413 85.7745 18.4413 86.0295C18.4413 87.4638 18.4413 88.9301 18.4413 90.3963Z" fill="white"/>
<path d="M37.3384 29.3245C33.4761 29.5795 30.0606 25.914 30.2202 22.1528C30.3798 18.2959 33.4122 15.236 37.3703 15.2678C41.1369 15.2997 44.3608 18.6465 44.2969 22.4396C44.2331 26.9658 40.1793 29.5158 37.3384 29.3245Z" fill="white"/>
</svg>
