<svg width="98" height="107" viewBox="0 0 98 107" fill="none" xmlns="http://www.w3.org/2000/svg">
<path d="M76.7482 103.772C73.0199 103.772 69.2583 103.772 65.53 103.772C65.1305 103.772 64.731 103.739 64.3649 103.606C63.5659 103.273 63.3662 102.608 63.8988 101.91C64.1318 101.578 64.4647 101.345 64.7976 101.146C72.1544 96.625 79.4778 92.1042 86.8346 87.5834C87.7334 87.0183 88.6322 86.4865 89.531 85.9214C90.2633 85.4228 91.0623 85.2566 91.961 85.3231C92.3605 85.3563 92.6601 85.6222 92.8598 85.9214C93.226 86.4532 93.2593 87.1181 93.2593 87.7164C93.2593 92.071 93.2593 96.4588 93.2593 100.813C93.2593 101.512 93.226 101.445 93.8918 101.445C94.9903 101.445 96.0888 101.445 97.1873 101.445C97.6201 101.445 97.6867 101.478 97.6867 101.944C97.6867 102.409 97.6867 102.841 97.6867 103.307C97.6867 103.739 97.6534 103.772 97.2539 103.772C96.0888 103.772 94.957 103.772 93.7919 103.772C93.2926 103.772 93.2926 103.772 93.2926 104.304C93.2926 104.736 93.2926 105.168 93.2926 105.6C93.2926 105.866 93.1927 105.999 92.8931 105.999C91.6282 105.999 90.3965 105.999 89.1315 105.999C88.8319 105.999 88.7321 105.899 88.7321 105.6C88.7321 105.135 88.7321 104.669 88.7321 104.204C88.7321 103.905 88.6322 103.805 88.3326 103.805C84.4711 103.805 80.6097 103.772 76.7482 103.772ZM78.8787 101.512C82.0078 101.512 85.1369 101.512 88.266 101.512C88.7321 101.512 88.7321 101.512 88.7321 101.046C88.7321 97.2899 88.7321 93.5669 88.7321 89.8106C88.7321 89.7109 88.7321 89.6444 88.7321 89.5447C88.6988 89.3452 88.5989 89.312 88.4325 89.3785C88.3659 89.4117 88.2993 89.4449 88.1994 89.5114C86.4019 90.6084 84.6376 91.7054 82.84 92.8023C78.3127 95.5946 73.8188 98.3868 69.2916 101.146C69.1917 101.212 69.0253 101.246 69.0585 101.379C69.0918 101.545 69.2583 101.478 69.3914 101.478C69.458 101.478 69.5246 101.478 69.5912 101.478C72.687 101.512 75.7828 101.512 78.8787 101.512Z" fill="white"/>
<path d="M13.9672 85.3561C18.095 85.3561 22.1894 85.3228 26.3172 85.3561C28.9137 85.3893 31.0442 87.0846 31.3771 89.9766C31.4769 91.0071 31.4103 92.0043 31.0775 92.9683C30.4117 94.8631 29.0136 95.8935 27.0828 96.2592C26.5169 96.3589 25.951 96.3921 25.3851 96.3921C19.7261 96.3921 14.0338 96.3921 8.37474 96.3921C6.61045 96.3921 5.74494 97.5556 5.51192 98.8187C5.44534 99.1512 5.44534 99.4836 5.44534 99.816C5.44534 101.711 5.44534 103.572 5.44534 105.467C5.44534 105.932 5.41206 105.999 4.91273 105.999C3.74763 105.999 2.58254 105.999 1.41744 105.999C0.951404 105.999 0.918115 105.966 0.918115 105.533C0.918115 103.506 0.884827 101.445 0.918115 99.4171C0.951404 97.7218 1.58388 96.2592 2.9487 95.1622C3.84749 94.4642 4.84616 94.1318 5.97797 94.1318C11.9033 94.1318 17.8287 94.1318 23.7207 94.1318C23.987 94.1318 24.2533 94.1317 24.5196 94.0985C25.5849 93.9323 26.2839 93.334 26.6168 92.3035C26.9164 91.3063 26.9164 90.309 26.6168 89.3118C26.2506 88.2148 25.3519 87.55 24.1868 87.5168C24.0203 87.5168 23.8539 87.5168 23.6874 87.5168C16.2974 87.5168 8.94064 87.5168 1.5506 87.5168C1.45074 87.5168 1.31758 87.5168 1.21772 87.5168C1.01799 87.5168 0.918115 87.4503 0.918115 87.2508C0.918115 86.719 0.918115 86.1539 0.918115 85.622C0.918115 85.4226 1.01798 85.3561 1.18442 85.3561C1.28428 85.3561 1.38416 85.3561 1.48402 85.3561C5.71166 85.3561 9.83943 85.3561 13.9672 85.3561Z" fill="white"/>
<path d="M58.1073 85.3566C60.4708 85.3566 62.8343 85.3566 65.1978 85.3566C65.6305 85.3566 65.6306 85.3566 65.6306 85.7887C65.6306 86.1544 65.6306 86.5533 65.6306 86.9189C65.6306 87.5173 65.6305 87.5172 65.0313 87.5172C61.9688 87.5172 58.9395 87.5172 55.877 87.5172C55.0781 87.5172 54.2459 87.5172 53.4469 87.5172C51.8824 87.5172 50.8172 88.448 50.6174 90.0436C50.5841 90.4092 50.5508 90.8081 50.5508 91.1738C50.5508 94.3317 50.5508 97.4564 50.5508 100.614C50.5508 101.778 50.2513 102.841 49.5855 103.805C48.6867 105.069 47.4217 105.7 45.9237 105.933C45.3911 105.999 44.8585 106.033 44.3259 106.033C39.9318 106.033 35.5044 106.033 31.1104 106.033C31.0105 106.033 30.9106 106.033 30.8108 106.033C30.4113 106.033 30.3447 105.966 30.3447 105.567C30.3447 105.102 30.3447 104.636 30.3447 104.171C30.3447 103.772 30.378 103.739 30.8108 103.739C34.8387 103.739 38.8666 103.739 42.8945 103.739C43.2607 103.739 43.6268 103.706 43.9597 103.639C45.0582 103.407 45.7906 102.542 46.0236 101.312C46.0902 100.947 46.0902 100.548 46.0902 100.182C46.0902 97.0907 46.0902 93.9661 46.0902 90.8746C46.0902 89.545 46.3898 88.315 47.222 87.2513C48.2206 85.9882 49.5522 85.3898 51.1501 85.3566C53.447 85.3233 55.7771 85.3566 58.1073 85.3566Z" fill="white"/>
<path d="M38.3086 30.2782C38.3086 20.5503 38.3086 10.8873 38.3086 1.15949C38.3086 0.964937 38.3086 0.770404 38.3086 0.575847C38.3086 0.0570289 38.506 -0.0726677 38.9666 0.0570368C41.9274 0.640707 44.8882 1.35407 47.849 2.19715C52.2573 3.42935 56.6656 4.66152 60.9423 6.34767C63.0478 7.19075 65.0874 8.22839 66.9297 9.59029C69.6274 11.6007 71.5354 14.1299 72.4566 17.3726C73.6409 21.7177 73.8383 26.0628 72.7856 30.4727C72.325 32.3534 71.4039 34.1045 69.9564 35.4663C68.1799 37.1525 66.0744 37.801 63.6399 37.6713C61.8635 37.6065 60.1528 37.0877 58.5079 36.3743C57.9815 36.1797 57.7841 35.8555 57.8499 35.3366C57.8499 28.7866 57.8499 22.2365 57.8499 15.6864C57.8499 14.8433 57.7842 14.0002 57.5868 13.1572C57.2578 11.9898 56.534 11.1468 55.3497 10.7577C54.297 10.4334 53.5732 10.7576 53.0468 11.6656C52.5205 12.5735 52.5205 13.6112 52.5205 14.6488C52.5205 30.9916 52.5205 47.3343 52.5205 63.6122C52.5205 64.8444 52.6521 64.8444 51.402 64.4553C47.3884 63.2231 43.3749 61.9261 39.2955 60.6939C38.7034 60.4993 38.506 60.2399 38.506 59.5914C38.3086 49.8636 38.3086 40.0709 38.3086 30.2782Z" fill="white"/>
<path d="M54.6338 46.8311C54.6338 45.6978 54.6338 44.6275 54.6338 43.4942C54.6338 42.9276 54.8278 42.7387 55.3451 42.5498C58.7722 41.4795 62.3286 40.7241 65.885 40.4093C71.7693 39.8426 77.5243 40.4093 83.1499 42.1092C84.7018 42.5499 86.1891 43.0535 87.6763 43.809C88.6463 44.2497 89.4869 44.8164 90.1982 45.6348C91.4914 47.1458 91.2974 48.8457 89.7455 50.2308C88.129 51.6789 86.1891 52.5603 84.1846 53.2528C74.6792 56.5896 65.1738 59.8635 55.7331 63.2003C54.6985 63.5781 54.6984 63.5781 54.6984 62.5078C54.6984 60.4931 54.6984 58.4784 54.6984 56.5267C54.6984 55.9601 54.8924 55.7082 55.4097 55.5194C62.3286 53.1269 69.1829 50.7345 76.1018 48.342C76.813 48.0902 77.589 47.8384 78.2356 47.3977C79.1409 46.7681 79.0762 46.1385 78.1063 45.6978C77.395 45.383 76.6837 45.2571 75.9077 45.1941C73.5799 45.0682 71.3167 45.32 69.1182 46.0756C64.6565 47.6495 60.1301 49.1605 55.6037 50.6715C54.7631 50.9234 54.7631 50.9234 54.7631 50.1049C54.6338 48.9716 54.6338 47.9014 54.6338 46.8311Z" fill="white"/>
<path d="M35.7969 42.6799C35.7969 43.6786 35.7969 44.7397 35.7969 45.7384C35.7969 46.3002 35.6037 46.6123 35.0239 46.7995C30.6432 48.2976 26.1982 49.858 21.8176 51.3561C21.3022 51.5433 20.7868 51.7306 20.2715 52.0427C19.8849 52.2923 19.5629 52.542 19.5629 53.0414C19.6273 53.4783 20.0138 53.728 20.4648 53.8528C21.3022 54.2273 22.2041 54.2897 23.106 54.3522C25.8761 54.5394 28.4529 53.8528 30.9654 52.9165C32.3182 52.4172 33.671 51.9803 35.0239 51.4809C35.6681 51.2312 35.7325 51.2936 35.7325 51.9178C35.7325 53.7904 35.7325 55.6629 35.7325 57.5979C35.7325 58.0348 35.5392 58.2845 35.0883 58.3469C32.3182 58.7839 29.5481 59.0335 26.778 59.0335C21.6243 58.9711 16.5995 58.0348 11.7035 56.2871C10.3507 55.7878 9.06223 55.1636 8.03149 54.1025C6.42097 52.4796 6.54984 50.4822 8.41804 49.109C10.4795 47.5485 12.9275 46.6123 15.3755 45.7384C21.8176 43.4914 28.2597 41.3067 34.7018 39.122C34.8306 39.0596 34.9594 39.0596 35.0883 38.9972C35.4748 38.8724 35.6681 38.9348 35.6681 39.3717C35.7969 40.4328 35.7969 41.5564 35.7969 42.6799Z" fill="white"/>
</svg>
