<svg width="32" height="36" viewBox="0 0 32 36" fill="none" xmlns="http://www.w3.org/2000/svg">
<path d="M29.5735 33.2887C29.5735 33.1381 22.7488 24.4017 21.5356 18.9791L21.2322 18.0753L21.3839 17.0209C21.9905 11.749 29.4218 3.01255 29.4218 3.01255L32 0L28.5118 1.95816C28.2085 2.10879 20.1706 6.47699 16.6825 12.0502L14.4076 9.7908C13.6493 9.03766 12.5877 8.88703 11.6777 9.48954L0.758295 16.8703C0.303318 17.1715 0 17.6234 0 18.2259C0 18.8285 0.303318 19.2803 0.758295 19.5816L11.6777 26.9623C12.436 27.5649 13.4976 27.4142 14.2559 26.6611L16.6825 24.251C20.1706 29.8243 28.2085 34.1925 28.5118 34.3431L31.6967 36L29.5735 33.2887Z" fill="white"/>
</svg>
