<svg width="33" height="33" viewBox="0 0 33 33" fill="none" xmlns="http://www.w3.org/2000/svg">
<path d="M16.4301 32C25.0119 32 32 25.0433 32 16.5C32 7.95669 25.0119 1 16.4301 1C7.84822 1 0.860138 7.95669 0.860138 16.5C0.860138 25.0433 7.84822 32 16.4301 32ZM16.4301 1.61024C24.6441 1.61024 31.387 8.32283 31.387 16.5C31.387 24.6772 24.6441 31.3898 16.4301 31.3898C8.21601 31.3898 1.47313 24.6772 1.47313 16.5C1.47313 8.32283 8.21601 1.61024 16.4301 1.61024Z" fill="white" stroke="white" stroke-miterlimit="10"/>
<path d="M15.9397 16.5L10.055 8.56694C9.93244 8.32285 9.93244 8.07876 10.1776 7.95671C10.4228 7.83466 10.668 7.83466 10.7906 8.07876L16.4301 15.7677L22.0696 8.07876C22.1922 7.83466 22.4374 7.83466 22.6826 7.95671C22.9278 8.07876 22.9278 8.32285 22.8052 8.56694L16.9205 16.5L22.8052 24.4331C22.9278 24.6772 22.9278 24.9213 22.6826 25.0433C22.56 25.0433 22.56 25.1654 22.4374 25.1654C22.3148 25.1654 22.1922 25.0433 22.0696 25.0433L16.4301 17.3543L10.7906 25.0433C10.668 25.1654 10.5454 25.1654 10.4228 25.1654C10.3002 25.1654 10.3002 25.1654 10.1776 25.0433C9.93244 24.9213 9.93244 24.6772 10.055 24.4331L15.9397 16.5Z" fill="white" stroke="white" stroke-miterlimit="10"/>
</svg>
