<svg width="32" height="36" viewBox="0 0 32 36" fill="none" xmlns="http://www.w3.org/2000/svg">
<path d="M2.42653 2.7113C2.42653 2.86192 9.25118 11.5983 10.4644 17.0209L10.7678 17.9247L10.6161 18.9791C10.0095 24.251 2.5782 32.9874 2.5782 32.9874L0 36L3.48816 34.0418C3.79148 33.8912 11.8294 29.523 15.3175 23.9498L17.5924 26.2092C18.3507 26.9623 19.4123 27.113 20.3223 26.5105L31.2417 19.1297C31.6967 18.8285 32 18.3766 32 17.7741C32 17.1715 31.6967 16.7197 31.2417 16.4184L20.3223 9.03766C19.564 8.43515 18.5024 8.58578 17.7441 9.33891L15.3175 11.749C11.8294 6.17573 3.79148 1.80753 3.48816 1.6569L0.303313 0L2.42653 2.7113Z" fill="white"/>
</svg>
