<svg width="241" height="331" viewBox="0 0 241 331" fill="none" xmlns="http://www.w3.org/2000/svg">
<path d="M114.98 260H121.191V239.321H128.199V234.186H108.006V239.321H114.98V260ZM150.003 260.486C157.047 260.486 161.835 255.42 161.835 246.954C161.835 238.523 157.047 233.701 150.003 233.701C142.96 233.701 138.172 238.489 138.172 246.954C138.172 255.42 142.96 260.486 150.003 260.486ZM150.003 255.143C146.603 255.143 144.522 251.985 144.522 246.954C144.522 241.958 146.603 239.009 150.003 239.009C153.404 239.009 155.52 241.958 155.52 246.954C155.52 251.985 153.404 255.143 150.003 255.143Z" fill="white"/>
<path d="M188.533 260H198.282C203.903 260 208.379 257.641 208.379 252.367C208.379 248.932 206.401 246.989 203.799 246.295V246.156C205.881 245.358 207.164 242.86 207.164 240.57C207.164 235.609 202.897 234.186 197.554 234.186H188.533V260ZM194.743 244.422V238.905H197.311C199.913 238.905 201.127 239.668 201.127 241.507C201.127 243.277 199.948 244.422 197.311 244.422H194.743ZM194.743 255.247V249.001H197.831C200.85 249.001 202.342 249.834 202.342 251.951C202.342 254.171 200.815 255.247 197.831 255.247H194.743ZM220.984 260H237.742V254.796H227.195V249.314H235.834V244.109H227.195V239.321H237.36V234.186H220.984V260Z" fill="white"/>
<path d="M12.0719 315.421C14.9921 315.421 17.4907 314.308 19.3873 312.11L16.5575 308.738C15.5038 309.882 14.0588 310.785 12.2826 310.785C9.12167 310.785 7.07456 308.196 7.07456 303.741C7.07456 299.376 9.45282 296.787 12.3429 296.787C13.9384 296.787 15.1125 297.509 16.2263 298.533L19.0562 295.101C17.5208 293.535 15.1727 292.181 12.2525 292.181C6.56279 292.181 1.56544 296.456 1.56544 303.922C1.56544 311.508 6.38216 315.421 12.0719 315.421ZM37.8421 315.421C43.9533 315.421 48.1077 311.026 48.1077 303.681C48.1077 296.365 43.9533 292.181 37.8421 292.181C31.7309 292.181 27.5765 296.335 27.5765 303.681C27.5765 311.026 31.7309 315.421 37.8421 315.421ZM37.8421 310.785C34.8919 310.785 33.0856 308.046 33.0856 303.681C33.0856 299.346 34.8919 296.787 37.8421 296.787C40.7923 296.787 42.6287 299.346 42.6287 303.681C42.6287 308.046 40.7923 310.785 37.8421 310.785ZM59.4912 315H64.609V307.564C64.609 304.855 64.1575 301.784 63.9166 299.285H64.0671L66.2648 304.192L71.804 315H77.283V292.602H72.1653V300.008C72.1653 302.687 72.5867 305.908 72.8878 308.287H72.7372L70.5396 303.319L64.9703 292.602H59.4912V315ZM94.0414 315H99.4301V297.058H105.511V292.602H87.9904V297.058H94.0414V315ZM116.188 315H121.576V292.602H116.188V315ZM133.938 315H139.055V307.564C139.055 304.855 138.604 301.784 138.363 299.285H138.514L140.711 304.192L146.25 315H151.729V292.602H146.612V300.008C146.612 302.687 147.033 305.908 147.334 308.287H147.184L144.986 303.319L139.417 292.602H133.938V315ZM173.124 315.421C179.085 315.421 182.095 312.02 182.095 304.463V292.602H176.917V305.035C176.917 309.28 175.562 310.785 173.124 310.785C170.655 310.785 169.391 309.28 169.391 305.035V292.602H164.032V304.463C164.032 312.02 167.133 315.421 173.124 315.421ZM194.338 315H208.879V310.484H199.727V305.728H207.223V301.212H199.727V297.058H208.548V292.602H194.338V315ZM220.526 315H227.269C233.802 315 238.318 311.478 238.318 303.681C238.318 295.884 233.802 292.602 226.968 292.602H220.526V315ZM225.914 310.665V296.877H226.637C230.25 296.877 232.808 298.352 232.808 303.681C232.808 309.009 230.25 310.665 226.637 310.665H225.914Z" fill="white"/>
<path d="M235 14L235 203" stroke="white" stroke-width="1.0038"/>
<circle cx="235.019" cy="5.01901" r="4.51711" stroke="white" stroke-width="1.0038"/>
</svg>
