<svg width="170" height="103" viewBox="0 0 170 103" fill="none" xmlns="http://www.w3.org/2000/svg">
<path d="M0.000488281 64.2603C14.6161 69.4124 28.773 74.5646 42.9954 78.8037C57.1523 82.9776 71.4402 86.3689 85.2039 86.695C98.8364 87.0211 112.993 83.8255 127.085 79.5863C141.176 75.282 155.202 69.8689 169.686 64.2603C158.806 75.4776 145.764 84.3472 131.607 91.3255C117.45 98.0429 101.655 103.065 84.8106 102.673C68.0976 102.152 52.6955 97.1298 38.5386 90.4776C24.4473 83.695 11.2736 75.1516 0.000488281 64.2603Z" fill="white"/>
<path d="M0 44.2385C10.4866 31.7819 23.3982 21.4776 37.7516 13.5211C52.1051 5.62978 68.2938 0.412387 85.0068 0.0210831C93.3305 -0.174569 101.72 0.999345 109.716 3.21674C117.712 5.49934 125.38 8.69499 132.524 12.7385C146.812 20.8254 159.592 31.4559 169.686 44.1732C157.692 33.3472 144.452 24.1515 130.23 17.1733C116.073 10.3254 100.606 5.95586 85.1378 6.41239C69.6046 6.60804 54.268 11.1733 39.98 17.9559C25.7576 24.8037 12.3217 33.7385 0 44.2385Z" fill="white"/>
<path d="M66.5908 29.8906C70.851 26.4993 76.0287 24.2166 81.5342 23.108C82.9105 22.8471 84.2869 22.6514 85.7288 22.5862C87.1052 22.521 88.5471 22.521 89.989 22.521L92.0863 22.7166C92.8072 22.7819 93.5282 22.8471 94.1836 22.9775C95.56 23.2384 97.0019 23.4993 98.3782 23.9558L100.476 24.608L102.507 25.4558C103.884 25.9775 105.129 26.6949 106.44 27.4123C107.095 27.7384 107.685 28.1949 108.275 28.5862L110.11 29.8253L111.814 31.1949C112.404 31.6514 112.994 32.108 113.453 32.6297C117.713 36.6732 121.121 41.7601 123.153 47.434C125.119 53.1079 125.971 59.3036 125.316 65.434L125.185 66.6079C125.119 66.9993 125.053 67.3906 124.988 67.7166L124.529 69.9993L124.398 70.5862L124.201 71.1079L123.808 72.2166C123.546 72.934 123.349 73.7166 123.022 74.434C121.776 77.3036 120.269 80.0427 118.237 82.4558C114.37 87.2819 109.193 91.0645 103.425 93.021L101.262 93.6732C100.541 93.8688 99.7546 93.9992 99.0336 94.1297C98.6404 94.1949 98.3127 94.2601 97.9194 94.3253C97.5262 94.3905 97.1985 94.4558 96.8052 94.4558C96.0843 94.521 95.2978 94.521 94.5769 94.5862C94.1836 94.5862 93.8559 94.6514 93.4627 94.6514C93.0694 94.6514 92.7417 94.5862 92.3484 94.5862C91.6275 94.521 90.9066 94.4558 90.1856 94.3905C88.7437 94.1949 87.3673 93.8036 85.991 93.4123C86.6464 93.1514 87.3018 92.8905 87.9572 92.6297L88.9403 92.3036L89.3991 92.1732L89.8579 91.9775L91.693 91.1949C92.0207 91.0645 92.2829 90.934 92.6106 90.8036L93.4627 90.3471C94.0525 90.021 94.6424 89.7601 95.1667 89.4992C95.7566 89.2384 96.2809 88.8471 96.8052 88.521C97.3296 88.1949 97.9194 87.934 98.3782 87.5427L99.8857 86.4992C103.884 83.6949 107.095 80.1732 109.651 76.3905C110.962 74.4992 112.011 72.4775 112.994 70.3905C113.191 69.8688 113.387 69.3471 113.649 68.8253L113.977 68.0427L114.174 67.6514L114.305 67.2601L114.829 65.6297C114.895 65.3688 115.026 65.1079 115.091 64.7819L115.288 63.934C116.402 59.434 116.533 54.5427 115.484 49.9123C114.37 45.2819 112.076 40.8471 108.865 37.0645C108.472 36.5427 108.078 36.1514 107.62 35.6949L106.309 34.3906L104.867 33.2166C104.408 32.8253 103.949 32.3688 103.359 32.0427C102.311 31.3253 101.328 30.608 100.213 30.021L98.5748 29.108L96.8052 28.3253C87.6295 23.8906 76.0287 24.4775 66.5908 29.8906Z" fill="white"/>
<path d="M105.522 66.9343C101.393 70.4561 96.1495 72.9343 90.644 74.043C89.2677 74.3039 87.8258 74.4996 86.4494 74.63C85.0075 74.6952 83.5656 74.6952 82.1237 74.6952L79.9608 74.4996C79.2399 74.4343 78.5189 74.3691 77.798 74.2387C76.3561 73.9126 74.9142 73.717 73.5378 73.2604L71.4405 72.6083L69.4087 71.7604C68.0324 71.2387 66.7871 70.4561 65.4763 69.8039C64.8209 69.4778 64.231 69.0213 63.6411 68.63L61.806 67.3909L60.1019 65.9561C59.512 65.4996 58.9222 65.043 58.4634 64.4561C54.2032 60.3474 50.8606 55.1952 48.9599 49.4561C47.1248 43.717 46.5349 37.5865 47.4525 31.5865L47.5836 30.4778C47.6491 30.0865 47.7802 29.7604 47.8457 29.3691L48.37 27.1517C48.5011 26.4343 48.8288 25.717 49.091 24.9996C49.3532 24.2822 49.6153 23.5648 49.8775 22.8474C51.1228 20.1083 52.6302 17.3691 54.5309 15.0213C54.9897 14.4343 55.4485 13.7822 55.9728 13.2604L57.5458 11.63L58.3323 10.7822C58.5945 10.5213 58.9222 10.2604 59.1843 9.99956C59.7742 9.47782 60.2985 9.0213 60.8884 8.49956C61.4783 8.04304 62.1337 7.65174 62.7235 7.19522C63.3789 6.80391 63.9688 6.34739 64.6242 5.95609L66.5905 4.84739L67.5736 4.32565L68.6222 3.86913L70.7851 3.08652C71.506 2.82565 72.227 2.63 72.9479 2.36913C73.6689 2.17348 74.3898 1.91261 75.1108 1.78217C75.8317 1.65174 76.5527 1.5213 77.3392 1.45609C77.7324 1.39087 78.0601 1.39087 78.4534 1.39087C78.8466 1.39087 79.2399 1.45609 79.5676 1.45609C80.2885 1.5213 81.075 1.58652 81.796 1.71696C83.3034 2.04304 84.7453 2.69522 86.1217 3.60826C85.794 3.86913 85.4663 4.13 85.1386 4.32565C84.8109 4.58652 84.4832 4.78217 84.1555 4.97783C83.8278 5.17348 83.5 5.36913 83.2379 5.49957C83.1068 5.56478 82.9102 5.63 82.7791 5.76043L82.3203 6.0213C81.7304 6.34739 81.1406 6.67348 80.5507 6.93435L79.6987 7.32565C79.4365 7.45609 79.1088 7.58652 78.8466 7.71696C78.2568 7.97782 77.7324 8.17348 77.1426 8.36913C76.5527 8.56478 76.0284 8.82565 75.4385 9.08652C74.9142 9.34739 74.3243 9.54304 73.8 9.80391L72.227 10.717C68.0324 13.0648 64.4276 16.4561 61.7404 20.3039C60.2985 22.1952 59.2499 24.3474 58.2012 26.4343C58.0046 26.9561 57.808 27.543 57.6113 28.0648L57.2836 28.9126L56.9559 29.1735L56.8248 29.63L56.3661 31.3257C56.3005 31.5865 56.1694 31.9126 56.1694 32.1735L55.9728 33.0865C55.0552 37.717 55.1863 42.6083 56.4316 47.2387C57.6769 51.8691 60.1019 56.1735 63.2479 59.8909C66.3938 63.6735 70.5885 66.4778 75.2419 68.4996C79.8953 70.4561 85.0075 71.4343 90.2508 71.1735C95.4941 70.9126 100.737 69.4778 105.522 66.9343Z" fill="white"/>
</svg>
