<svg width="140" height="123" viewBox="0 0 140 123" fill="none" xmlns="http://www.w3.org/2000/svg">
<path d="M110.205 11.8455L74.2483 120.881C73.8827 122.053 72.745 122.862 71.5262 122.862H44.3455C42.9235 122.862 41.7452 121.851 41.5015 120.476L36.6666 90.0338C36.5854 89.5891 36.626 89.1039 36.7885 88.6592L66.8132 1.94056C67.2195 0.808566 68.3165 0 69.5354 0H102.201C103.176 0 104.07 0.485139 104.598 1.2937L109.88 9.46022C110.367 10.1071 110.489 11.0369 110.205 11.8455Z" fill="white"/>
<path d="M31.7097 122.821H1.48184C1.03492 122.821 0.70987 122.457 0.750499 122.012L2.94447 99.2107C2.9851 98.766 3.35075 98.483 3.79766 98.5234L7.2105 97.3915C7.53553 97.4319 8.02305 96.3807 8.14493 96.0978L29.2313 57.8526C29.5157 57.4079 30.1252 57.3675 30.4502 57.7718L36.5445 64.9276C36.707 65.1297 36.7477 65.3723 36.7071 65.6148L27.6468 96.8659C27.6062 96.9872 27.6062 97.1085 27.6468 97.2297L32.5223 121.972C32.5223 122.417 32.1566 122.821 31.7097 122.821Z" fill="white"/>
<path d="M110.205 30.0785L85.2184 114.897C85.1777 114.978 85.1777 115.059 85.1777 115.14V119.587C85.1777 120.031 85.5434 120.395 85.9903 120.395H138.32C138.808 120.395 139.214 119.951 139.133 119.465L133.16 85.1013C133.079 84.6971 132.754 84.4141 132.348 84.4545L121.622 84.6162C121.216 84.6162 120.85 84.2928 120.809 83.8885L116.665 34.2426C116.665 34.0404 116.543 33.8383 116.381 33.717L111.505 29.7146C111.058 29.3103 110.368 29.5125 110.205 30.0785Z" fill="white"/>
</svg>
