<svg width="124" height="123" viewBox="0 0 124 123" fill="none" xmlns="http://www.w3.org/2000/svg">
<path d="M62 0C27.8184 0 0 27.6032 0 61.5202C0 69.3722 1.46842 76.8598 4.20131 83.7404C4.44605 84.4689 4.77237 85.1974 5.09868 85.926C14.6434 107.741 36.5474 123 62 123C96.1816 123 124 95.3968 124 61.4798C124 27.5627 96.1816 0 62 0ZM62 2.83317C89.5329 2.83317 112.742 21.613 119.268 46.9901C116.943 44.4403 113.354 42.2952 108.051 42.2142C96.7118 42.0118 93.4894 54.154 94.1829 59.2537C94.8763 64.3939 98.7921 64.7581 100.424 64.3129C102.096 63.8272 101.688 62.3702 101.321 62.2892C100.913 62.2083 100.138 63.8272 97.4052 59.4965C94.6723 55.1254 114.782 46.4235 106.991 73.8243C101.199 94.1422 88.9618 106.81 79.4579 112.639C91.8171 102.763 97.9763 85.6831 98.5066 80.7048C99.0776 75.1599 95.2842 74.998 94.0197 75.4028C92.7553 75.8075 92.021 77.7502 93.0408 77.8312C94.5092 77.9121 93.5302 76.4146 94.346 76.3741C95.6105 76.3337 96.3855 79.1668 94.0605 85.2784C90.0224 95.8825 67.4658 95.923 65.3855 90.6209C63.346 85.2784 66.446 81.7976 73.3802 79.8549C80.3144 77.9121 82.3539 81.3929 81.2934 84.1046C80.2329 86.8164 78.1526 85.6426 78.1526 85.6426C78.1526 85.6426 81.7829 92.0375 84.8013 85.4403C87.8197 78.843 80.7224 63.9487 53.475 78.5192C32.4276 89.7305 26.9618 102.601 25.575 107.701C25.0039 107.256 23.6171 106.122 23.0869 105.677C29.6947 90.3781 43.8079 81.6762 43.8079 81.6762C25.2487 82.7285 24.7592 67.8342 26.1053 64.151C27.4921 60.4679 30.6737 62.2488 31.3671 63.9082C33.1618 68.077 30.5513 65.4057 29.5316 66.4176C28.1039 67.9151 30.7552 69.2103 33.4066 66.8628C36.0579 64.5558 32.9987 51.7256 19.3342 56.0158C10.1974 58.849 6.24079 69.1698 4.56843 75.7266C3.95658 73.2981 3.5079 70.7887 3.22238 68.2794C6.32238 62.3702 13.4605 51.5232 25.6158 48.2043C42.6658 43.5499 52.8631 52.9803 50.7421 60.1441C48.9473 66.2152 45.0316 64.8796 45.0316 64.8796C45.0316 64.8796 49.6408 72.2458 55.7184 65.1224C62.4895 57.23 58.0434 38.7739 43.6039 32.8243C32.2645 28.1698 15.0921 32.0148 6.36317 41.5262C14.6842 18.9822 36.4658 2.83317 62 2.83317Z" fill="white"/>
</svg>
