<svg width="141" height="122" viewBox="0 0 141 122" fill="none" xmlns="http://www.w3.org/2000/svg">
<path d="M0.707031 52.9712C12.7551 57.2183 24.4249 61.4653 36.1488 64.9597C47.8186 68.4004 59.5965 71.1959 70.9422 71.4647C82.1798 71.7335 93.8497 69.0993 105.465 65.6048C117.081 62.0567 128.643 57.5946 140.583 52.9712C131.615 62.218 120.863 69.5293 109.193 75.2817C97.5235 80.819 84.503 84.9585 70.618 84.636C56.8411 84.2059 44.1448 80.0664 32.4749 74.5828C20.8591 68.9917 9.99968 61.9492 0.707031 52.9712Z" fill="white"/>
<path d="M0.707031 36.4668C9.35136 26.1986 19.9947 17.7045 31.8266 11.1457C43.6585 4.64076 57.0032 0.339941 70.7801 0.0173793C77.6415 -0.143901 84.557 0.823784 91.1483 2.65163C97.7396 4.53324 104.061 7.16749 109.95 10.5006C121.728 17.1669 132.263 25.9298 140.583 36.4131C130.696 27.4889 119.783 19.9087 108.059 14.1563C96.3889 8.5115 83.6385 4.90956 70.8882 5.28588C58.0838 5.44716 45.4414 9.21038 33.6635 14.8014C21.9397 20.4463 10.8641 27.8114 0.707031 36.4668Z" fill="white"/>
<path d="M12.0536 97.9684C10.757 100.603 7.83953 101.785 5.51637 100.603C3.19321 99.4199 2.32877 96.4093 3.5714 93.7751C4.75999 91.3559 10.1087 85.9799 12.81 84.6896C13.0802 84.5283 13.4583 84.7434 13.5124 85.0659C14.2147 88.184 13.2422 95.5492 12.0536 97.9684Z" fill="white"/>
<path d="M129.508 97.9684C130.805 100.603 133.722 101.785 136.045 100.603C138.368 99.4737 139.233 96.4093 137.99 93.7751C136.802 91.3559 131.453 85.9799 128.751 84.6896C128.481 84.5283 128.103 84.7434 128.049 85.0659C127.347 88.184 128.319 95.5492 129.508 97.9684Z" fill="white"/>
<path d="M63.3799 114.472C63.3799 118.666 66.6215 122.053 70.6735 121.999C74.7256 121.945 77.9672 118.558 77.9672 114.365C77.9672 110.494 74.2393 100.119 71.3759 96.8391C71.0517 96.4628 70.4574 96.5166 70.1333 96.8391C67.0537 100.441 63.3799 110.548 63.3799 114.472Z" fill="white"/>
<path d="M55.5986 24.6398C59.1104 21.8443 63.3785 19.9627 67.9168 19.0488C69.0514 18.8337 70.1859 18.6725 71.3745 18.6187C72.5091 18.5649 73.6977 18.5649 74.8863 18.5649L76.6152 18.7262C77.2095 18.78 77.8037 18.8337 78.344 18.9413C79.4786 19.1563 80.6672 19.3713 81.8018 19.7477L83.5306 20.2853L85.2055 20.9842C86.34 21.4142 87.3665 22.0056 88.4471 22.597C88.9873 22.8658 89.4736 23.2421 89.9598 23.5646L91.4726 24.5861L92.8773 25.7151C93.3635 26.0914 93.8498 26.4677 94.228 26.8978C97.7397 30.2309 100.549 34.4242 102.224 39.1014C103.845 43.7785 104.547 48.8857 104.007 53.9392L103.899 54.9069C103.845 55.2294 103.791 55.552 103.737 55.8208L103.359 57.7024L103.25 58.1862L103.088 58.6163L102.764 59.5302C102.548 60.1216 102.386 60.7667 102.116 61.3581C101.089 63.7235 99.8468 65.9815 98.1719 67.9706C94.9843 71.9489 90.7162 75.067 85.9618 76.6798L84.1789 77.2174C83.5846 77.3786 82.9363 77.4862 82.342 77.5937C82.0179 77.6474 81.7477 77.7012 81.4236 77.755C81.0994 77.8087 80.8293 77.8625 80.5051 77.8625C79.9108 77.9163 79.2625 77.9162 78.6682 77.97C78.344 77.97 78.0739 78.0238 77.7497 78.0238C77.4256 78.0238 77.1554 77.97 76.8313 77.97C76.237 77.9162 75.6427 77.8625 75.0484 77.8087C73.8598 77.6474 72.7252 77.3249 71.5906 77.0023C72.1309 76.7873 72.6712 76.5722 73.2114 76.3572L74.0219 76.0884L74.4 75.9809L74.7782 75.8196L76.291 75.1745C76.5611 75.067 76.7772 74.9594 77.0474 74.8519L77.7497 74.4756C78.236 74.2068 78.7222 73.9917 79.1544 73.7767C79.6407 73.5617 80.0729 73.2391 80.5051 72.9703C80.9373 72.7015 81.4236 72.4865 81.8018 72.1639L83.0444 71.3037C86.34 68.992 88.9874 66.089 91.0944 62.9709C92.1749 61.4118 93.0394 59.7453 93.8498 58.025C94.0119 57.5949 94.1739 57.1648 94.39 56.7347L94.6602 56.0896L94.8223 55.767L94.9303 55.4445L95.3625 54.1005C95.4166 53.8854 95.5246 53.6704 95.5787 53.4016L95.7407 52.7027C96.6592 48.9932 96.7672 44.9612 95.9028 41.1442C94.9843 37.3273 93.0934 33.6716 90.4461 30.5535C90.1219 30.1234 89.7978 29.8008 89.4196 29.4245L88.339 28.3493L87.1504 27.3816C86.7722 27.0591 86.394 26.6827 85.9078 26.4139C85.0434 25.8226 84.233 25.2312 83.3145 24.7474L81.9638 23.9947L80.5051 23.3496C72.9413 19.6939 63.3785 20.1777 55.5986 24.6398Z" fill="white"/>
<path d="M87.6903 55.1755C84.2866 58.0786 79.9645 60.1215 75.4262 61.0354C74.2916 61.2504 73.103 61.4117 71.9684 61.5192C70.7799 61.573 69.5913 61.573 68.4027 61.573L66.6198 61.4117C66.0255 61.358 65.4312 61.3042 64.8369 61.1967C63.6483 60.9279 62.4597 60.7666 61.3251 60.3903L59.5963 59.8527L57.9214 59.1538C56.7868 58.7237 55.7603 58.0786 54.6798 57.541C54.1395 57.2722 53.6533 56.8959 53.167 56.5733L51.6543 55.5518L50.2496 54.3691C49.7633 53.9928 49.2771 53.6165 48.8989 53.1326C45.3871 49.7457 42.6318 45.4987 41.065 40.7678C39.5522 36.0369 39.066 30.9834 39.8224 26.0375L39.9304 25.1236C39.9844 24.801 40.0925 24.5322 40.1465 24.2096L40.5787 22.3818C40.6868 21.7904 40.9569 21.1991 41.173 20.6077C41.3891 20.0163 41.6052 19.425 41.8214 18.8336C42.8479 16.5757 44.0905 14.3177 45.6573 12.3824C46.0355 11.8985 46.4137 11.3609 46.8459 10.9308L48.1425 9.58684L48.7908 8.88796C49.007 8.67292 49.2771 8.45788 49.4932 8.24284C49.9794 7.81275 50.4117 7.43643 50.8979 7.00635C51.3841 6.63003 51.9244 6.30747 52.4107 5.93115C52.9509 5.60858 53.4372 5.23226 53.9774 4.9097L55.5983 3.99578L56.4087 3.5657L57.2731 3.18937L59.056 2.54425C59.6503 2.32921 60.2446 2.16793 60.8389 1.95289C61.4332 1.79161 62.0275 1.57657 62.6218 1.46905C63.2161 1.36153 63.8104 1.25401 64.4587 1.20024C64.7829 1.14648 65.053 1.14648 65.3771 1.14648C65.7013 1.14648 66.0255 1.20024 66.2956 1.20024C66.8899 1.25401 67.5382 1.30777 68.1325 1.41529C69.3752 1.68409 70.5637 2.22169 71.6983 2.97433C71.4282 3.18937 71.158 3.40441 70.8879 3.5657C70.6178 3.78074 70.3476 3.94202 70.0775 4.1033C69.8074 4.26458 69.5372 4.42586 69.3211 4.53338C69.2131 4.58714 69.051 4.6409 68.9429 4.74842L68.5647 4.96346C68.0785 5.23226 67.5923 5.50107 67.106 5.71611L66.4037 6.03867C66.1876 6.14619 65.9174 6.25371 65.7013 6.36123C65.2151 6.57627 64.7828 6.73755 64.2966 6.89883C63.8104 7.06011 63.3781 7.27515 62.8919 7.49019C62.4597 7.70523 61.9734 7.86651 61.5412 8.08156L60.2446 8.8342C56.7868 10.7696 53.8154 13.5651 51.6002 16.737C50.4117 18.296 49.5472 20.0701 48.6828 21.7904C48.5207 22.2205 48.3586 22.7043 48.1965 23.1344L47.9264 23.8333L47.6563 24.0483L47.5482 24.4247L47.17 25.8224C47.116 26.0375 47.008 26.3063 47.008 26.5213L46.8459 27.274C46.0895 31.0909 46.1975 35.123 47.2241 38.9399C48.2506 42.7569 50.2496 46.3051 52.8429 49.3694C55.4362 52.4875 58.8939 54.7992 62.7298 56.4658C66.5657 58.0786 70.7799 58.885 75.102 58.6699C79.4242 58.4549 83.7463 57.2722 87.6903 55.1755Z" fill="white"/>
</svg>
