<svg width="91" height="127" viewBox="0 0 91 127" fill="none" xmlns="http://www.w3.org/2000/svg">
<path d="M38.8273 0.0355663C38.9845 0.504911 42.9937 16.8929 37.766 34.6888C32.5383 52.4066 28.5291 58.469 23.3013 58.0778C22.2008 57.9996 19.6852 56.0049 19.0956 47.5567C18.5453 39.1085 16.4621 35.4711 16.4621 35.4711C16.4621 35.4711 16.1084 41.5335 13.239 47.7132C10.2911 54.0493 12.5315 57.2174 9.19048 68.3643C5.77085 79.7068 -2.05111 86.8252 0.503787 96.173C2.58701 103.761 9.26913 109.706 17.2876 113.617C25.1095 117.45 30.2585 119.21 40.9891 125.038C46.2561 127.893 47.0423 124.06 48.7718 120.931C49.7937 119.054 50.6978 117.333 50.7764 116.746C51.5232 111.818 44.8804 100.749 44.2515 99.9669C43.6619 99.2237 42.4042 106.225 38.5915 108.337C36.9013 109.276 31.9094 108.65 26.9568 103.956C24.2447 101.414 26.7997 92.4182 40.0851 88.5461C51.6018 85.1825 57.0654 91.9098 58.1266 93.4351C59.1879 94.9214 62.2931 111.388 54.1174 122.261C54.1174 122.261 62.6861 116.746 73.6526 109.98C81.3173 105.247 88.6282 102.392 90.6328 91.6751C92.0871 84.0874 87.8028 82.1318 84.7762 76.5387C81.7496 70.9848 77.5439 65.7438 76.7971 60.6592C76.0502 55.5356 76.0502 54.0102 75.4213 50.8421C74.8317 47.674 67.5994 38.8347 67.5994 38.8347C67.5994 38.8347 71.2156 51.155 69.5648 58.2343C67.9139 65.3136 64.2977 73.0186 59.7775 73.9965C54.4318 75.1307 45.0377 74.7396 43.6227 65.7438C42.0898 56.1614 52.5451 45.7576 53.685 38.2872C54.707 31.5599 53.8816 22.2903 46.8458 10.5567C39.81 -1.17691 38.8273 0.0355663 38.8273 0.0355663Z" fill="white"/>
</svg>
